<svg width="24" height="24" viewBox="0 0 24 24" fill="none" xmlns="http://www.w3.org/2000/svg">
<path d="M19.633 7.10987L13.159 3.08987C12.8048 2.86872 12.3956 2.75146 11.978 2.75146C11.5604 2.75146 11.1512 2.86872 10.797 3.08987L4.32401 7.13287C3.95596 7.36497 3.66385 7.69967 3.48367 8.09573C3.3035 8.4918 3.24313 8.93192 3.31001 9.36187L4.98001 19.3889C5.06828 19.9138 5.3414 20.3898 5.75001 20.7309C6.15862 21.072 6.67577 21.2558 7.20801 21.2489H16.79C17.3224 21.256 17.8398 21.0724 18.2486 20.7313C18.6574 20.3901 18.9307 19.914 19.019 19.3889L20.689 9.36187C20.7562 8.92401 20.6914 8.47607 20.503 8.07516C20.3146 7.67426 20.011 7.33856 19.631 7.11087" stroke="white" stroke-opacity="0.7" stroke-width="1.5" stroke-linecap="round" stroke-linejoin="round"/>
</svg>
