<svg width="24" height="24" viewBox="0 0 24 24" fill="none" xmlns="http://www.w3.org/2000/svg">
<g clip-path="url(#clip0_85_621)">
<path d="M19.436 7.75352C19.2605 7.26352 18.6615 5.97002 16.802 4.14702C14.8315 2.21502 13.467 1.67102 13.042 1.53802C12.1949 1.51206 11.3475 1.49939 10.5 1.50002C7.368 1.50002 5.217 1.66002 3.876 1.81352C2.7755 1.93952 1.951 2.76502 1.83 3.86602C1.67 5.31102 1.5 7.73652 1.5 11.5C1.5 15.2635 1.6705 17.689 1.83 19.134C1.951 20.235 2.7755 21.0605 3.876 21.1865C4.825 21.295 6.1795 21.4065 8 21.463" stroke="white" stroke-opacity="0.7" stroke-width="1.5" stroke-linecap="round" stroke-linejoin="round"/>
<path d="M19.443 7.97918C18.3995 8.13468 16.5225 8.01518 15.098 7.88368C14.555 7.83521 14.0462 7.59805 13.6599 7.2134C13.2736 6.82876 13.0343 6.32094 12.9835 5.77818C12.8495 4.37718 12.7305 2.54518 12.8935 1.53418M20.5 17.1292C20.5 17.1292 20.2635 16.0752 18.844 14.6562C17.425 13.2367 16.371 13.0002 16.371 13.0002M5 6.50018L7 8.50018L9.5 5.00018M5 12.0002L7 14.0002L9.5 10.5002" stroke="white" stroke-opacity="0.7" stroke-width="1.5" stroke-linecap="round" stroke-linejoin="round"/>
<path d="M21.8325 15.7958C22.5595 15.0693 22.8375 14.0073 22.2295 13.1783C21.9606 12.8156 21.6648 12.4736 21.3445 12.1553C20.9745 11.7853 20.6295 11.4963 20.321 11.2703C19.4925 10.6623 18.4305 10.9403 17.7035 11.6668L11.5335 17.8368C11.262 18.1088 11.076 18.4533 11.044 18.8368C11.0005 19.3573 10.9685 20.2418 11.0525 21.5508C11.0675 21.7837 11.1667 22.0031 11.3317 22.1681C11.4967 22.3331 11.7162 22.4324 11.949 22.4473C13.2575 22.5313 14.1425 22.4993 14.663 22.4553C15.046 22.4233 15.391 22.2378 15.663 21.9653L21.8325 15.7958Z" stroke="white" stroke-opacity="0.7" stroke-width="1.5" stroke-linecap="round" stroke-linejoin="round"/>
</g>
<defs>
<clipPath id="clip0_85_621">
<rect width="24" height="24" fill="white"/>
</clipPath>
</defs>
</svg>
