<svg width="14" height="14" viewBox="0 0 14 14" fill="none" xmlns="http://www.w3.org/2000/svg">
<path d="M4.66666 2.04199C4.66666 1.80993 4.75884 1.58737 4.92294 1.42327C5.08703 1.25918 5.30959 1.16699 5.54166 1.16699H8.45832C8.69039 1.16699 8.91295 1.25918 9.07704 1.42327C9.24114 1.58737 9.33332 1.80993 9.33332 2.04199V2.62533C9.33332 2.85739 9.24114 3.07995 9.07704 3.24404C8.91295 3.40814 8.69039 3.50033 8.45832 3.50033H5.54166C5.30959 3.50033 5.08703 3.40814 4.92294 3.24404C4.75884 3.07995 4.66666 2.85739 4.66666 2.62533V2.04199Z" fill="#9BFF00"/>
<path d="M7.29167 4.30176V1.45801H5.32292C4.99416 1.45801 4.67887 1.58861 4.4464 1.82107C4.21393 2.05354 4.08333 2.36883 4.08333 2.69759V9.84342C4.08333 10.1722 4.21393 10.4875 4.4464 10.7199C4.67887 10.9524 4.99416 11.083 5.32292 11.083H10.1354C10.4642 11.083 10.7795 10.9524 11.0119 10.7199C11.2444 10.4875 11.375 10.1722 11.375 9.84342V5.54134H8.53125C8.20249 5.54134 7.8872 5.41074 7.65473 5.17828C7.42227 4.94581 7.29167 4.63052 7.29167 4.30176ZM8.02083 4.30176V1.60384L11.2292 4.81217H8.53125C8.39588 4.81217 8.26605 4.7584 8.17033 4.66268C8.07461 4.56696 8.02083 4.43713 8.02083 4.30176ZM2.625 3.99551C2.62489 3.76302 2.69424 3.5358 2.82416 3.343C2.95408 3.1502 3.13864 3.00061 3.35417 2.91342V9.84342C3.35417 10.3656 3.56159 10.8663 3.9308 11.2355C4.30001 11.6048 4.80077 11.8122 5.32292 11.8122H9.91958C9.8324 12.0277 9.68281 12.2123 9.49001 12.3422C9.29721 12.4721 9.06999 12.5415 8.8375 12.5413H5.32292C4.60738 12.5413 3.92116 12.2571 3.4152 11.7511C2.90924 11.2452 2.625 10.559 2.625 9.84342V3.99551Z" fill="#9BFF00"/>
<path fill-rule="evenodd" clip-rule="evenodd" d="M3.79167 2.35449C3.05783 2.39533 2.59467 2.51199 2.26275 2.84449C1.75 3.35724 1.75 4.18208 1.75 5.83174V9.33174C1.75 10.982 1.75 11.8068 2.26275 12.3196C2.77492 12.8317 3.60033 12.8317 5.25 12.8317H8.75C10.3997 12.8317 11.2251 12.8317 11.7372 12.3196C12.25 11.8062 12.25 10.982 12.25 9.33174V5.83174C12.25 4.18208 12.25 3.35724 11.7372 2.84449C11.4053 2.51199 10.9422 2.39533 10.2083 2.35449V2.62458C10.2083 3.0887 10.024 3.53382 9.69577 3.86201C9.36758 4.1902 8.92246 4.37458 8.45833 4.37458H5.54167C5.07754 4.37458 4.63242 4.1902 4.30423 3.86201C3.97604 3.53382 3.79167 3.0887 3.79167 2.62458V2.35449ZM3.64583 6.12458C3.64583 6.00854 3.69193 5.89726 3.77397 5.81522C3.85602 5.73317 3.9673 5.68708 4.08333 5.68708H9.91667C10.0327 5.68708 10.144 5.73317 10.226 5.81522C10.3081 5.89726 10.3542 6.00854 10.3542 6.12458C10.3542 6.24061 10.3081 6.35189 10.226 6.43393C10.144 6.51598 10.0327 6.56208 9.91667 6.56208H4.08333C3.9673 6.56208 3.85602 6.51598 3.77397 6.43393C3.69193 6.35189 3.64583 6.24061 3.64583 6.12458ZM4.22917 8.16624C4.22917 8.05021 4.27526 7.93893 4.35731 7.85688C4.43935 7.77484 4.55063 7.72874 4.66667 7.72874H9.33333C9.44937 7.72874 9.56065 7.77484 9.64269 7.85688C9.72474 7.93893 9.77083 8.05021 9.77083 8.16624C9.77083 8.28227 9.72474 8.39355 9.64269 8.4756C9.56065 8.55765 9.44937 8.60374 9.33333 8.60374H4.66667C4.55063 8.60374 4.43935 8.55765 4.35731 8.4756C4.27526 8.39355 4.22917 8.28227 4.22917 8.16624ZM4.8125 10.2079C4.8125 10.0919 4.85859 9.9806 4.94064 9.89855C5.02269 9.8165 5.13397 9.77041 5.25 9.77041H8.75C8.86603 9.77041 8.97731 9.8165 9.05936 9.89855C9.14141 9.9806 9.1875 10.0919 9.1875 10.2079C9.1875 10.3239 9.14141 10.4352 9.05936 10.5173C8.97731 10.5993 8.86603 10.6454 8.75 10.6454H5.25C5.13397 10.6454 5.02269 10.5993 4.94064 10.5173C4.85859 10.4352 4.8125 10.3239 4.8125 10.2079Z" fill="#9BFF00"/>
</svg>
