<svg width="16" height="16" viewBox="0 0 16 16" fill="none" xmlns="http://www.w3.org/2000/svg">
<path d="M4.25 2C3.78587 2 3.34075 2.18437 3.01256 2.51256C2.68437 2.84075 2.5 3.28587 2.5 3.75V13.25C2.5 13.7141 2.68437 14.1592 3.01256 14.4874C3.34075 14.8156 3.78587 15 4.25 15H8.737C8.81 14.836 8.9135 14.683 9.0475 14.5485L13.3 10.296C13.3617 10.2343 13.4286 10.1781 13.5 10.128V3.75C13.5 3.28587 13.3156 2.84075 12.9874 2.51256C12.6592 2.18437 12.2141 2 11.75 2H4.25Z" fill="url(#paint0_linear_49_1073)"/>
<path d="M5 6.5C5 6.36739 5.05268 6.24021 5.14645 6.14645C5.24021 6.05268 5.36739 6 5.5 6H10.5C10.6326 6 10.7598 6.05268 10.8536 6.14645C10.9473 6.24021 11 6.36739 11 6.5C11 6.63261 10.9473 6.75979 10.8536 6.85355C10.7598 6.94732 10.6326 7 10.5 7H5.5C5.36739 7 5.24021 6.94732 5.14645 6.85355C5.05268 6.75979 5 6.63261 5 6.5Z" fill="url(#paint1_linear_49_1073)" fill-opacity="0.9"/>
<path d="M5 9C5 8.86739 5.05268 8.74021 5.14645 8.64645C5.24021 8.55268 5.36739 8.5 5.5 8.5H8C8.13261 8.5 8.25979 8.55268 8.35355 8.64645C8.44732 8.74021 8.5 8.86739 8.5 9C8.5 9.13261 8.44732 9.25979 8.35355 9.35355C8.25979 9.44732 8.13261 9.5 8 9.5H5.5C5.36739 9.5 5.24021 9.44732 5.14645 9.35355C5.05268 9.25979 5 9.13261 5 9Z" fill="url(#paint2_linear_49_1073)" fill-opacity="0.9"/>
<path d="M5.5 11C5.36739 11 5.24021 11.0527 5.14645 11.1464C5.05268 11.2402 5 11.3674 5 11.5C5 11.6326 5.05268 11.7598 5.14645 11.8536C5.24021 11.9473 5.36739 12 5.5 12H10.5C10.6326 12 10.7598 11.9473 10.8536 11.8536C10.9473 11.7598 11 11.6326 11 11.5C11 11.3674 10.9473 11.2402 10.8536 11.1464C10.7598 11.0527 10.6326 11 10.5 11H5.5Z" fill="url(#paint3_linear_49_1073)" fill-opacity="0.9"/>
<path d="M4.25 2C3.78587 2 3.34075 2.18437 3.01256 2.51256C2.68437 2.84075 2.5 3.28587 2.5 3.75V13.25C2.5 13.7141 2.68437 14.1592 3.01256 14.4874C3.34075 14.8156 3.78587 15 4.25 15H8.737C8.81 14.836 8.9135 14.683 9.0475 14.5485L13.3 10.296C13.3617 10.2343 13.4286 10.1781 13.5 10.128V3.75C13.5 3.28587 13.3156 2.84075 12.9874 2.51256C12.6592 2.18437 12.2141 2 11.75 2H4.25Z" fill="url(#paint4_radial_49_1073)" fill-opacity="0.4"/>
<path d="M4.25 2C3.78587 2 3.34075 2.18437 3.01256 2.51256C2.68437 2.84075 2.5 3.28587 2.5 3.75V13.25C2.5 13.7141 2.68437 14.1592 3.01256 14.4874C3.34075 14.8156 3.78587 15 4.25 15H8.737C8.81 14.836 8.9135 14.683 9.0475 14.5485L13.3 10.296C13.3617 10.2343 13.4286 10.1781 13.5 10.128V3.75C13.5 3.28587 13.3156 2.84075 12.9874 2.51256C12.6592 2.18437 12.2141 2 11.75 2H4.25Z" fill="url(#paint5_radial_49_1073)" fill-opacity="0.4"/>
<path d="M4.25 2C3.78587 2 3.34075 2.18437 3.01256 2.51256C2.68437 2.84075 2.5 3.28587 2.5 3.75V13.25C2.5 13.7141 2.68437 14.1592 3.01256 14.4874C3.34075 14.8156 3.78587 15 4.25 15H8.737C8.81 14.836 8.9135 14.683 9.0475 14.5485L13.3 10.296C13.3617 10.2343 13.4286 10.1781 13.5 10.128V3.75C13.5 3.28587 13.3156 2.84075 12.9874 2.51256C12.6592 2.18437 12.2141 2 11.75 2H4.25Z" fill="url(#paint6_radial_49_1073)" fill-opacity="0.4"/>
<path d="M5 2.5C5 2.10218 5.15804 1.72064 5.43934 1.43934C5.72064 1.15804 6.10218 1 6.5 1H9.5C9.89782 1 10.2794 1.15804 10.5607 1.43934C10.842 1.72064 11 2.10218 11 2.5C11 2.89782 10.842 3.27936 10.5607 3.56066C10.2794 3.84196 9.89782 4 9.5 4H6.5C6.10218 4 5.72064 3.84196 5.43934 3.56066C5.15804 3.27936 5 2.89782 5 2.5Z" fill="url(#paint7_linear_49_1073)"/>
<path d="M10.2695 14.7343L14.0745 10.9628L12.038 8.92578L8.2545 12.7458L8.4085 14.5933L10.2695 14.7343Z" fill="url(#paint8_linear_49_1073)"/>
<path d="M13.4685 11.5698L14.574 10.4628C14.8405 10.1987 14.9933 9.84099 15.0001 9.46586C15.0068 9.09073 14.8668 8.72779 14.61 8.45429C14.4776 8.31331 14.3182 8.20044 14.1412 8.12241C13.9643 8.04438 13.7734 8.0028 13.5801 8.00014C13.3867 7.99748 13.1948 8.0338 13.0157 8.10693C12.8367 8.18006 12.6742 8.2885 12.538 8.42579L11.419 9.54629L13.4685 11.5698Z" fill="url(#paint9_linear_49_1073)"/>
<path d="M12.047 8.91895C12.1655 9.41413 12.4208 9.86602 12.7838 10.223C13.1468 10.58 13.6029 10.8278 14.1 10.9379L13.325 11.7134C12.8278 11.6032 12.3716 11.3553 12.0086 10.9981C11.6455 10.6409 11.3903 10.1888 11.272 9.69345L12.047 8.91895Z" fill="url(#paint10_linear_49_1073)"/>
<path d="M10.2695 14.7346L10.381 14.6231C10.381 14.6231 9.518 14.2926 9.1135 13.8881C8.709 13.4831 8.3785 12.6211 8.3785 12.6211L8.2545 12.7456C8.08884 12.9127 7.97048 13.1208 7.9115 13.3486L7.5165 14.8741C7.49461 14.9583 7.49509 15.0468 7.51787 15.1308C7.54066 15.2148 7.58498 15.2914 7.64644 15.353C7.7079 15.4146 7.78438 15.4591 7.86831 15.4821C7.95224 15.5051 8.04072 15.5058 8.125 15.4841L9.635 15.0951C9.87471 15.033 10.0936 14.9089 10.2695 14.7346Z" fill="url(#paint11_linear_49_1073)"/>
<defs>
<linearGradient id="paint0_linear_49_1073" x1="2.5" y1="3.3" x2="12.816" y2="15.575" gradientUnits="userSpaceOnUse">
<stop stop-color="#36DFF1"/>
<stop offset="1" stop-color="#0094F0"/>
</linearGradient>
<linearGradient id="paint1_linear_49_1073" x1="8.75" y1="12" x2="4.311" y2="6.5625" gradientUnits="userSpaceOnUse">
<stop stop-color="#9DEAFF"/>
<stop offset="1" stop-color="white"/>
</linearGradient>
<linearGradient id="paint2_linear_49_1073" x1="8.75" y1="12" x2="4.311" y2="6.5625" gradientUnits="userSpaceOnUse">
<stop stop-color="#9DEAFF"/>
<stop offset="1" stop-color="white"/>
</linearGradient>
<linearGradient id="paint3_linear_49_1073" x1="8.75" y1="12" x2="4.311" y2="6.5625" gradientUnits="userSpaceOnUse">
<stop stop-color="#9DEAFF"/>
<stop offset="1" stop-color="white"/>
</linearGradient>
<radialGradient id="paint4_radial_49_1073" cx="0" cy="0" r="1" gradientUnits="userSpaceOnUse" gradientTransform="translate(8 1.278) scale(4.46875 3.93482)">
<stop stop-color="#0A1852"/>
<stop offset="1" stop-color="#0A1852" stop-opacity="0"/>
</radialGradient>
<radialGradient id="paint5_radial_49_1073" cx="0" cy="0" r="1" gradientUnits="userSpaceOnUse" gradientTransform="translate(8 1.278) scale(4.46875 4.43872)">
<stop stop-color="#0A1852"/>
<stop offset="1" stop-color="#0A1852" stop-opacity="0"/>
</radialGradient>
<radialGradient id="paint6_radial_49_1073" cx="0" cy="0" r="1" gradientUnits="userSpaceOnUse" gradientTransform="translate(11.7815 11.389) rotate(135.565) scale(7.2212 3.24364)">
<stop stop-color="#0A1852"/>
<stop offset="1" stop-color="#0A1852" stop-opacity="0"/>
</radialGradient>
<linearGradient id="paint7_linear_49_1073" x1="8" y1="1" x2="8" y2="4" gradientUnits="userSpaceOnUse">
<stop stop-color="#FFE06B"/>
<stop offset="1" stop-color="#FAB500"/>
</linearGradient>
<linearGradient id="paint8_linear_49_1073" x1="9.9305" y1="9.97378" x2="13.022" y2="13.0743" gradientUnits="userSpaceOnUse">
<stop stop-color="#FFA43D"/>
<stop offset="1" stop-color="#FB5937"/>
</linearGradient>
<linearGradient id="paint9_linear_49_1073" x1="14.251" y1="8.74229" x2="12.9345" y2="9.98429" gradientUnits="userSpaceOnUse">
<stop stop-color="#F97DBD"/>
<stop offset="1" stop-color="#DD3CE2"/>
</linearGradient>
<linearGradient id="paint10_linear_49_1073" x1="12.7345" y1="10.8319" x2="10.7445" y2="9.95095" gradientUnits="userSpaceOnUse">
<stop stop-color="#FF921F"/>
<stop offset="1" stop-color="#FFE994"/>
</linearGradient>
<linearGradient id="paint11_linear_49_1073" x1="7.087" y1="13.4231" x2="9.1625" y2="15.4871" gradientUnits="userSpaceOnUse">
<stop offset="0.255" stop-color="#FFD394"/>
<stop offset="1" stop-color="#FF921F"/>
</linearGradient>
</defs>
</svg>
