<svg width="12" height="11" viewBox="0 0 12 11" fill="none" xmlns="http://www.w3.org/2000/svg">
<path fill-rule="evenodd" clip-rule="evenodd" d="M2.79167 0.354492C2.05783 0.395326 1.59467 0.511992 1.26275 0.844492C0.75 1.35724 0.75 2.18208 0.75 3.83174V7.33174C0.75 8.98199 0.75 9.80683 1.26275 10.3196C1.77492 10.8317 2.60033 10.8317 4.25 10.8317H7.75C9.39967 10.8317 10.2251 10.8317 10.7372 10.3196C11.25 9.80624 11.25 8.98199 11.25 7.33174V3.83174C11.25 2.18208 11.25 1.35724 10.7372 0.844492C10.4053 0.511992 9.94217 0.395326 9.20833 0.354492V0.624575C9.20833 1.0887 9.02396 1.53382 8.69577 1.86201C8.36758 2.1902 7.92246 2.37458 7.45833 2.37458H4.54167C4.07754 2.37458 3.63242 2.1902 3.30423 1.86201C2.97604 1.53382 2.79167 1.0887 2.79167 0.624575V0.354492ZM2.64583 4.12458C2.64583 4.00854 2.69193 3.89726 2.77397 3.81522C2.85602 3.73317 2.9673 3.68708 3.08333 3.68708H8.91667C9.0327 3.68708 9.14398 3.73317 9.22603 3.81522C9.30807 3.89726 9.35417 4.00854 9.35417 4.12458C9.35417 4.24061 9.30807 4.35189 9.22603 4.43393C9.14398 4.51598 9.0327 4.56208 8.91667 4.56208H3.08333C2.9673 4.56208 2.85602 4.51598 2.77397 4.43393C2.69193 4.35189 2.64583 4.24061 2.64583 4.12458ZM3.22917 6.16624C3.22917 6.05021 3.27526 5.93893 3.35731 5.85688C3.43935 5.77484 3.55063 5.72874 3.66667 5.72874H8.33333C8.44937 5.72874 8.56065 5.77484 8.64269 5.85688C8.72474 5.93893 8.77083 6.05021 8.77083 6.16624C8.77083 6.28227 8.72474 6.39355 8.64269 6.4756C8.56065 6.55765 8.44937 6.60374 8.33333 6.60374H3.66667C3.55063 6.60374 3.43935 6.55765 3.35731 6.4756C3.27526 6.39355 3.22917 6.28227 3.22917 6.16624ZM3.8125 8.20791C3.8125 8.09188 3.85859 7.9806 3.94064 7.89855C4.02269 7.8165 4.13397 7.77041 4.25 7.77041H7.75C7.86603 7.77041 7.97731 7.8165 8.05936 7.89855C8.14141 7.9806 8.1875 8.09188 8.1875 8.20791C8.1875 8.32394 8.14141 8.43522 8.05936 8.51727C7.97731 8.59931 7.86603 8.64541 7.75 8.64541H4.25C4.13397 8.64541 4.02269 8.59931 3.94064 8.51727C3.85859 8.43522 3.8125 8.32394 3.8125 8.20791Z" fill="#9BFF00"/>
</svg>
