<svg width="140" height="38" viewBox="0 0 140 38" fill="none" xmlns="http://www.w3.org/2000/svg">
<rect width="140" height="38" rx="19" fill="#1C250D" fill-opacity="0.5"/>
<path d="M14.6667 14.042C14.6667 13.8099 14.7588 13.5874 14.9229 13.4233C15.087 13.2592 15.3096 13.167 15.5417 13.167H18.4583C18.6904 13.167 18.9129 13.2592 19.077 13.4233C19.2411 13.5874 19.3333 13.8099 19.3333 14.042V14.6253C19.3333 14.8574 19.2411 15.0799 19.077 15.244C18.9129 15.4081 18.6904 15.5003 18.4583 15.5003H15.5417C15.3096 15.5003 15.087 15.4081 14.9229 15.244C14.7588 15.0799 14.6667 14.8574 14.6667 14.6253V14.042Z" fill="#9BFF00"/>
<path d="M17.2917 16.3018V13.458H15.3229C14.9942 13.458 14.6789 13.5886 14.4464 13.8211C14.2139 14.0535 14.0833 14.3688 14.0833 14.6976V21.8434C14.0833 22.1722 14.2139 22.4875 14.4464 22.7199C14.6789 22.9524 14.9942 23.083 15.3229 23.083H20.1354C20.4642 23.083 20.7795 22.9524 21.0119 22.7199C21.2444 22.4875 21.375 22.1722 21.375 21.8434V17.5413H18.5312C18.2025 17.5413 17.8872 17.4107 17.6547 17.1783C17.4223 16.9458 17.2917 16.6305 17.2917 16.3018ZM18.0208 16.3018V13.6038L21.2292 16.8122H18.5312C18.3959 16.8122 18.2661 16.7584 18.1703 16.6627C18.0746 16.567 18.0208 16.4371 18.0208 16.3018ZM12.625 15.9955C12.6249 15.763 12.6942 15.5358 12.8242 15.343C12.9541 15.1502 13.1386 15.0006 13.3542 14.9134V21.8434C13.3542 22.3656 13.5616 22.8663 13.9308 23.2355C14.3 23.6048 14.8008 23.8122 15.3229 23.8122H19.9196C19.8324 24.0277 19.6828 24.2123 19.49 24.3422C19.2972 24.4721 19.07 24.5415 18.8375 24.5413H15.3229C14.6074 24.5413 13.9212 24.2571 13.4152 23.7511C12.9092 23.2452 12.625 22.559 12.625 21.8434V15.9955Z" fill="#9BFF00"/>
<path fill-rule="evenodd" clip-rule="evenodd" d="M13.7917 14.3545C13.0578 14.3953 12.5947 14.512 12.2627 14.8445C11.75 15.3572 11.75 16.1821 11.75 17.8317V21.3317C11.75 22.982 11.75 23.8068 12.2627 24.3196C12.7749 24.8317 13.6003 24.8317 15.25 24.8317H18.75C20.3997 24.8317 21.2251 24.8317 21.7372 24.3196C22.25 23.8062 22.25 22.982 22.25 21.3317V17.8317C22.25 16.1821 22.25 15.3572 21.7372 14.8445C21.4053 14.512 20.9422 14.3953 20.2083 14.3545V14.6246C20.2083 15.0887 20.024 15.5338 19.6958 15.862C19.3676 16.1902 18.9225 16.3746 18.4583 16.3746H15.5417C15.0775 16.3746 14.6324 16.1902 14.3042 15.862C13.976 15.5338 13.7917 15.0887 13.7917 14.6246V14.3545ZM13.6458 18.1246C13.6458 18.0085 13.6919 17.8973 13.774 17.8152C13.856 17.7332 13.9673 17.6871 14.0833 17.6871H19.9167C20.0327 17.6871 20.144 17.7332 20.226 17.8152C20.3081 17.8973 20.3542 18.0085 20.3542 18.1246C20.3542 18.2406 20.3081 18.3519 20.226 18.4339C20.144 18.516 20.0327 18.5621 19.9167 18.5621H14.0833C13.9673 18.5621 13.856 18.516 13.774 18.4339C13.6919 18.3519 13.6458 18.2406 13.6458 18.1246ZM14.2292 20.1662C14.2292 20.0502 14.2753 19.9389 14.3573 19.8569C14.4394 19.7748 14.5506 19.7287 14.6667 19.7287H19.3333C19.4494 19.7287 19.5606 19.7748 19.6427 19.8569C19.7247 19.9389 19.7708 20.0502 19.7708 20.1662C19.7708 20.2823 19.7247 20.3936 19.6427 20.4756C19.5606 20.5576 19.4494 20.6037 19.3333 20.6037H14.6667C14.5506 20.6037 14.4394 20.5576 14.3573 20.4756C14.2753 20.3936 14.2292 20.2823 14.2292 20.1662ZM14.8125 22.2079C14.8125 22.0919 14.8586 21.9806 14.9406 21.8985C15.0227 21.8165 15.134 21.7704 15.25 21.7704H18.75C18.866 21.7704 18.9773 21.8165 19.0594 21.8985C19.1414 21.9806 19.1875 22.0919 19.1875 22.2079C19.1875 22.3239 19.1414 22.4352 19.0594 22.5173C18.9773 22.5993 18.866 22.6454 18.75 22.6454H15.25C15.134 22.6454 15.0227 22.5993 14.9406 22.5173C14.8586 22.4352 14.8125 22.3239 14.8125 22.2079Z" fill="#9BFF00"/>
<path d="M33.416 23.192C32.648 23.192 31.972 23.016 31.388 22.664C30.804 22.304 30.348 21.792 30.02 21.128C29.692 20.464 29.528 19.672 29.528 18.752C29.528 17.84 29.688 17.052 30.008 16.388C30.336 15.716 30.792 15.2 31.376 14.84C31.96 14.472 32.644 14.288 33.428 14.288C34.484 14.288 35.304 14.552 35.888 15.08C36.472 15.608 36.852 16.34 37.028 17.276L35.672 17.348C35.56 16.764 35.32 16.308 34.952 15.98C34.584 15.644 34.076 15.476 33.428 15.476C32.908 15.476 32.456 15.608 32.072 15.872C31.696 16.136 31.4 16.512 31.184 17C30.976 17.488 30.872 18.072 30.872 18.752C30.872 19.432 30.976 20.016 31.184 20.504C31.4 20.992 31.7 21.364 32.084 21.62C32.468 21.876 32.912 22.004 33.416 22.004C34.104 22.004 34.636 21.824 35.012 21.464C35.396 21.096 35.636 20.592 35.732 19.952L37.088 20.024C36.984 20.672 36.776 21.232 36.464 21.704C36.152 22.176 35.74 22.544 35.228 22.808C34.716 23.064 34.112 23.192 33.416 23.192ZM40.8089 23.144C40.2009 23.144 39.6689 23.008 39.2129 22.736C38.7569 22.464 38.4049 22.076 38.1569 21.572C37.9089 21.068 37.7849 20.48 37.7849 19.808C37.7849 19.128 37.9089 18.54 38.1569 18.044C38.4049 17.548 38.7569 17.164 39.2129 16.892C39.6689 16.612 40.2009 16.472 40.8089 16.472C41.4169 16.472 41.9489 16.612 42.4049 16.892C42.8609 17.164 43.2129 17.548 43.4609 18.044C43.7089 18.54 43.8329 19.128 43.8329 19.808C43.8329 20.48 43.7089 21.068 43.4609 21.572C43.2129 22.076 42.8609 22.464 42.4049 22.736C41.9489 23.008 41.4169 23.144 40.8089 23.144ZM40.8089 22.04C41.3529 22.04 41.7729 21.844 42.0689 21.452C42.3649 21.052 42.5129 20.504 42.5129 19.808C42.5129 19.112 42.3649 18.568 42.0689 18.176C41.7729 17.776 41.3529 17.576 40.8089 17.576C40.2729 17.576 39.8529 17.776 39.5489 18.176C39.2529 18.568 39.1049 19.112 39.1049 19.808C39.1049 20.504 39.2529 21.052 39.5489 21.452C39.8529 21.844 40.2729 22.04 40.8089 22.04ZM44.9384 24.8V16.616H46.1384L46.1744 17.984L46.0304 17.912C46.1904 17.44 46.4544 17.084 46.8224 16.844C47.1904 16.596 47.6144 16.472 48.0944 16.472C48.7184 16.472 49.2304 16.628 49.6304 16.94C50.0384 17.244 50.3384 17.648 50.5304 18.152C50.7304 18.656 50.8304 19.208 50.8304 19.808C50.8304 20.408 50.7304 20.96 50.5304 21.464C50.3384 21.968 50.0384 22.376 49.6304 22.688C49.2304 22.992 48.7184 23.144 48.0944 23.144C47.7744 23.144 47.4744 23.088 47.1944 22.976C46.9144 22.864 46.6744 22.708 46.4744 22.508C46.2824 22.3 46.1464 22.056 46.0664 21.776L46.2104 21.632V24.8H44.9384ZM47.8664 22.04C48.3784 22.04 48.7784 21.844 49.0664 21.452C49.3624 21.06 49.5104 20.512 49.5104 19.808C49.5104 19.104 49.3624 18.556 49.0664 18.164C48.7784 17.772 48.3784 17.576 47.8664 17.576C47.5304 17.576 47.2384 17.66 46.9904 17.828C46.7424 17.988 46.5504 18.236 46.4144 18.572C46.2784 18.908 46.2104 19.32 46.2104 19.808C46.2104 20.296 46.2744 20.708 46.4024 21.044C46.5384 21.38 46.7304 21.632 46.9784 21.8C47.2344 21.96 47.5304 22.04 47.8664 22.04ZM52.1028 24.8V23.756H52.8828C53.0988 23.756 53.2588 23.724 53.3628 23.66C53.4668 23.596 53.5468 23.488 53.6028 23.336L53.8068 22.808H53.4108L51.1068 16.616H52.4508L54.2028 21.632L55.8708 16.616H57.2268L54.6828 23.744C54.5548 24.112 54.3628 24.38 54.1068 24.548C53.8588 24.716 53.5108 24.8 53.0628 24.8H52.1028ZM60.9336 23V16.616H62.0976L62.1456 18.308L62.0376 18.272C62.1256 17.696 62.3016 17.276 62.5656 17.012C62.8376 16.748 63.2016 16.616 63.6576 16.616H64.2696V17.756H63.6576C63.3376 17.756 63.0696 17.808 62.8536 17.912C62.6376 18.016 62.4736 18.176 62.3616 18.392C62.2576 18.608 62.2056 18.888 62.2056 19.232V23H60.9336ZM67.6238 23.144C66.9998 23.144 66.4598 23.008 66.0038 22.736C65.5558 22.464 65.2078 22.076 64.9598 21.572C64.7198 21.068 64.5998 20.48 64.5998 19.808C64.5998 19.136 64.7198 18.552 64.9598 18.056C65.2078 17.552 65.5558 17.164 66.0038 16.892C66.4518 16.612 66.9798 16.472 67.5878 16.472C68.1638 16.472 68.6718 16.608 69.1118 16.88C69.5518 17.144 69.8918 17.528 70.1318 18.032C70.3798 18.536 70.5038 19.144 70.5038 19.856V20.18H65.9198C65.9518 20.804 66.1158 21.272 66.4118 21.584C66.7158 21.896 67.1238 22.052 67.6358 22.052C68.0118 22.052 68.3238 21.964 68.5718 21.788C68.8198 21.612 68.9918 21.376 69.0878 21.08L70.4078 21.164C70.2398 21.756 69.9078 22.236 69.4118 22.604C68.9238 22.964 68.3278 23.144 67.6238 23.144ZM65.9198 19.22H69.1598C69.1198 18.652 68.9558 18.232 68.6678 17.96C68.3878 17.688 68.0278 17.552 67.5878 17.552C67.1318 17.552 66.7558 17.696 66.4598 17.984C66.1718 18.264 65.9918 18.676 65.9198 19.22ZM72.0146 23V16.208C72.0146 15.68 72.1626 15.26 72.4586 14.948C72.7546 14.636 73.2186 14.48 73.8506 14.48H74.9786V15.524H74.0186C73.7706 15.524 73.5866 15.592 73.4666 15.728C73.3466 15.856 73.2866 16.04 73.2866 16.28V23H72.0146ZM71.1266 17.732V16.7H74.8826V17.732H71.1266ZM78.256 23.144C77.632 23.144 77.092 23.008 76.636 22.736C76.188 22.464 75.84 22.076 75.592 21.572C75.352 21.068 75.232 20.48 75.232 19.808C75.232 19.136 75.352 18.552 75.592 18.056C75.84 17.552 76.188 17.164 76.636 16.892C77.084 16.612 77.612 16.472 78.22 16.472C78.796 16.472 79.304 16.608 79.744 16.88C80.184 17.144 80.524 17.528 80.764 18.032C81.012 18.536 81.136 19.144 81.136 19.856V20.18H76.552C76.584 20.804 76.748 21.272 77.044 21.584C77.348 21.896 77.756 22.052 78.268 22.052C78.644 22.052 78.956 21.964 79.204 21.788C79.452 21.612 79.624 21.376 79.72 21.08L81.04 21.164C80.872 21.756 80.54 22.236 80.044 22.604C79.556 22.964 78.96 23.144 78.256 23.144ZM76.552 19.22H79.792C79.752 18.652 79.588 18.232 79.3 17.96C79.02 17.688 78.66 17.552 78.22 17.552C77.764 17.552 77.388 17.696 77.092 17.984C76.804 18.264 76.624 18.676 76.552 19.22ZM82.2448 23V16.616H83.4088L83.4568 18.308L83.3488 18.272C83.4368 17.696 83.6128 17.276 83.8768 17.012C84.1488 16.748 84.5128 16.616 84.9688 16.616H85.5808V17.756H84.9688C84.6488 17.756 84.3808 17.808 84.1648 17.912C83.9488 18.016 83.7848 18.176 83.6728 18.392C83.5688 18.608 83.5168 18.888 83.5168 19.232V23H82.2448ZM86.3539 23V16.616H87.5179L87.5659 18.308L87.4579 18.272C87.5459 17.696 87.7219 17.276 87.9859 17.012C88.2579 16.748 88.6219 16.616 89.0779 16.616H89.6899V17.756H89.0779C88.7579 17.756 88.4899 17.808 88.2739 17.912C88.0579 18.016 87.8939 18.176 87.7819 18.392C87.6779 18.608 87.6259 18.888 87.6259 19.232V23H86.3539ZM92.2275 23.144C91.5635 23.144 91.0315 22.992 90.6315 22.688C90.2395 22.384 90.0435 21.956 90.0435 21.404C90.0435 20.852 90.2075 20.424 90.5355 20.12C90.8715 19.808 91.3875 19.584 92.0835 19.448L94.2795 19.028C94.2795 18.532 94.1635 18.164 93.9315 17.924C93.6995 17.676 93.3555 17.552 92.8995 17.552C92.4915 17.552 92.1715 17.644 91.9395 17.828C91.7075 18.004 91.5475 18.268 91.4595 18.62L90.1515 18.536C90.2715 17.896 90.5675 17.392 91.0395 17.024C91.5195 16.656 92.1395 16.472 92.8995 16.472C93.7635 16.472 94.4195 16.704 94.8675 17.168C95.3235 17.624 95.5515 18.268 95.5515 19.1V21.584C95.5515 21.736 95.5755 21.844 95.6235 21.908C95.6795 21.964 95.7675 21.992 95.8875 21.992H96.1155V23C96.0755 23.008 96.0115 23.016 95.9235 23.024C95.8355 23.032 95.7435 23.036 95.6475 23.036C95.3755 23.036 95.1395 22.992 94.9395 22.904C94.7475 22.816 94.6035 22.672 94.5075 22.472C94.4115 22.264 94.3635 21.988 94.3635 21.644L94.4955 21.704C94.4315 21.984 94.2915 22.232 94.0755 22.448C93.8675 22.664 93.5995 22.836 93.2715 22.964C92.9515 23.084 92.6035 23.144 92.2275 23.144ZM92.4315 22.136C92.8155 22.136 93.1435 22.064 93.4155 21.92C93.6875 21.768 93.8995 21.56 94.0515 21.296C94.2035 21.032 94.2795 20.732 94.2795 20.396V19.988L92.4075 20.348C92.0235 20.42 91.7515 20.536 91.5915 20.696C91.4395 20.848 91.3635 21.044 91.3635 21.284C91.3635 21.556 91.4555 21.768 91.6395 21.92C91.8315 22.064 92.0955 22.136 92.4315 22.136ZM98.3195 23C97.9035 23 97.5675 22.892 97.3115 22.676C97.0555 22.46 96.9275 22.116 96.9275 21.644V14.48H98.1995V21.524C98.1995 21.668 98.2355 21.776 98.3075 21.848C98.3875 21.92 98.4995 21.956 98.6435 21.956H99.1475V23H98.3195ZM105.5 23.144C104.892 23.144 104.36 23.008 103.904 22.736C103.448 22.464 103.096 22.076 102.848 21.572C102.6 21.068 102.476 20.48 102.476 19.808C102.476 19.136 102.6 18.552 102.848 18.056C103.096 17.552 103.448 17.164 103.904 16.892C104.36 16.612 104.892 16.472 105.5 16.472C106.02 16.472 106.48 16.564 106.88 16.748C107.288 16.924 107.616 17.184 107.864 17.528C108.12 17.872 108.284 18.292 108.356 18.788L107.024 18.86C106.96 18.444 106.792 18.128 106.52 17.912C106.248 17.688 105.908 17.576 105.5 17.576C104.964 17.576 104.544 17.776 104.24 18.176C103.944 18.568 103.796 19.112 103.796 19.808C103.796 20.504 103.944 21.052 104.24 21.452C104.544 21.844 104.964 22.04 105.5 22.04C105.908 22.04 106.248 21.928 106.52 21.704C106.792 21.472 106.96 21.124 107.024 20.66L108.356 20.732C108.284 21.22 108.12 21.644 107.864 22.004C107.616 22.364 107.288 22.644 106.88 22.844C106.48 23.044 106.02 23.144 105.5 23.144ZM111.965 23.144C111.357 23.144 110.825 23.008 110.369 22.736C109.913 22.464 109.561 22.076 109.313 21.572C109.065 21.068 108.941 20.48 108.941 19.808C108.941 19.128 109.065 18.54 109.313 18.044C109.561 17.548 109.913 17.164 110.369 16.892C110.825 16.612 111.357 16.472 111.965 16.472C112.573 16.472 113.105 16.612 113.561 16.892C114.017 17.164 114.369 17.548 114.617 18.044C114.865 18.54 114.989 19.128 114.989 19.808C114.989 20.48 114.865 21.068 114.617 21.572C114.369 22.076 114.017 22.464 113.561 22.736C113.105 23.008 112.573 23.144 111.965 23.144ZM111.965 22.04C112.509 22.04 112.929 21.844 113.225 21.452C113.521 21.052 113.669 20.504 113.669 19.808C113.669 19.112 113.521 18.568 113.225 18.176C112.929 17.776 112.509 17.576 111.965 17.576C111.429 17.576 111.009 17.776 110.705 18.176C110.409 18.568 110.261 19.112 110.261 19.808C110.261 20.504 110.409 21.052 110.705 21.452C111.009 21.844 111.429 22.04 111.965 22.04ZM118.362 23.144C117.818 23.144 117.342 23.008 116.934 22.736C116.534 22.464 116.226 22.08 116.01 21.584C115.802 21.08 115.698 20.488 115.698 19.808C115.698 19.128 115.806 18.54 116.022 18.044C116.238 17.54 116.546 17.152 116.946 16.88C117.346 16.608 117.818 16.472 118.362 16.472C118.802 16.472 119.194 16.564 119.538 16.748C119.882 16.932 120.142 17.188 120.318 17.516V14.48H121.59V23H120.402L120.366 22.04C120.19 22.384 119.922 22.656 119.562 22.856C119.21 23.048 118.81 23.144 118.362 23.144ZM118.698 22.04C119.042 22.04 119.334 21.952 119.574 21.776C119.814 21.6 119.998 21.344 120.126 21.008C120.254 20.672 120.318 20.272 120.318 19.808C120.318 19.328 120.254 18.924 120.126 18.596C119.998 18.26 119.814 18.008 119.574 17.84C119.334 17.664 119.042 17.576 118.698 17.576C118.186 17.576 117.778 17.776 117.474 18.176C117.17 18.568 117.018 19.112 117.018 19.808C117.018 20.496 117.17 21.04 117.474 21.44C117.778 21.84 118.186 22.04 118.698 22.04ZM125.726 23.144C125.102 23.144 124.562 23.008 124.106 22.736C123.658 22.464 123.31 22.076 123.062 21.572C122.822 21.068 122.702 20.48 122.702 19.808C122.702 19.136 122.822 18.552 123.062 18.056C123.31 17.552 123.658 17.164 124.106 16.892C124.554 16.612 125.082 16.472 125.69 16.472C126.266 16.472 126.774 16.608 127.214 16.88C127.654 17.144 127.994 17.528 128.234 18.032C128.482 18.536 128.606 19.144 128.606 19.856V20.18H124.022C124.054 20.804 124.218 21.272 124.514 21.584C124.818 21.896 125.226 22.052 125.738 22.052C126.114 22.052 126.426 21.964 126.674 21.788C126.922 21.612 127.094 21.376 127.19 21.08L128.51 21.164C128.342 21.756 128.01 22.236 127.514 22.604C127.026 22.964 126.43 23.144 125.726 23.144ZM124.022 19.22H127.262C127.222 18.652 127.058 18.232 126.77 17.96C126.49 17.688 126.13 17.552 125.69 17.552C125.234 17.552 124.858 17.696 124.562 17.984C124.274 18.264 124.094 18.676 124.022 19.22Z" fill="#9BFF00"/>
</svg>
