<svg width="390" height="172" viewBox="0 0 390 172" fill="none" xmlns="http://www.w3.org/2000/svg">
<g clip-path="url(#clip0_9_574)">
<rect width="390" height="172" rx="10" fill="#1C1C1E"/>
<path d="M357.731 127.431V212.625C357.731 212.625 392.937 187.9 417.662 180.644C417.662 180.644 418.737 127.969 434.056 101.631L357.731 127.431Z" fill="#076170"/>
<path d="M379.769 199.725C379.769 199.725 381.113 124.206 383.8 120.444C386.488 116.413 409.6 112.381 409.6 112.381C409.6 112.381 400.194 183.063 402.344 187.631C402.613 187.363 392.938 191.394 379.769 199.725Z" fill="#B3690E"/>
<path d="M357.731 212.625C357.731 212.625 333.006 191.663 294.575 180.644C294.575 180.644 297.531 137.375 283.556 104.319L357.731 127.431V212.625Z" fill="#3BAACF"/>
<path d="M310.162 187.631C310.162 187.631 332.737 196.769 334.35 199.725C335.962 202.681 335.962 123.669 335.962 123.669C335.962 123.669 305.056 115.069 302.369 115.069C302.369 115.069 311.775 147.05 310.162 187.631Z" fill="#E9C243"/>
<path opacity="0.3" d="M357.731 127.431V141.675L426.8 118.025C428.681 112.113 431.1 106.469 433.788 101.631L357.731 127.431ZM288.394 119.1C287.05 113.994 285.438 109.156 283.288 104.319L357.463 127.431V141.675L288.394 119.1Z" fill="black"/>
<path d="M277.375 96.7939L353.969 113.725L438.625 93.3002L355.581 88.7314L277.375 96.7939Z" fill="#4FC7E8"/>
<path d="M277.375 96.7939L283.556 113.725L353.969 133.613V113.725L277.375 96.7939Z" fill="#3BAACF"/>
<path d="M353.969 133.613C353.969 133.613 417.931 109.963 433.787 108.888C433.787 108.888 434.863 99.4813 438.625 93.5688L353.969 113.725V133.613Z" fill="#076170"/>
<path d="M300.219 101.9L315.806 116.681L333.006 108.888L358 101.363L389.175 105.125L405.569 108.35L418.737 98.1377L300.219 101.9Z" fill="#F0AE11"/>
<path d="M333.006 108.888L358 101.363L389.175 105.125L418.737 98.1376L356.387 92.2251L300.219 101.9L333.006 108.888Z" fill="#F0AE11"/>
<path d="M300.219 101.9V120.712L331.662 129.312L333.006 108.887L300.219 101.9Z" fill="#F8D048"/>
<path d="M389.175 105.125L389.712 123.131L416.587 115.069L418.737 98.1377L389.175 105.125Z" fill="#C47116"/>
<path d="M372.244 92.4937C372.244 92.4937 372.244 73.6812 390.519 57.2875C390.519 57.2875 379.5 61.3188 374.125 60.2438C367.675 59.1688 365.525 51.375 365.525 51.375C365.525 51.375 349.937 85.2375 354.506 89.5375C359.075 94.1063 372.244 92.4937 372.244 92.4937Z" fill="#EA9F07"/>
<path d="M348.325 103.513C348.325 103.513 337.844 82.0127 315.537 70.7252C315.537 70.7252 333.006 69.1127 337.037 66.9627C342.144 64.5439 345.1 57.8252 345.1 57.8252C345.1 57.8252 364.45 91.6877 362.837 96.7939C361.225 101.9 348.325 103.513 348.325 103.513Z" fill="#F8D048"/>
<path d="M359.612 101.094C359.612 101.094 343.219 107.544 322.256 107.544C278.181 107.275 272 75.5625 315.538 78.5187C351.281 81.2062 359.612 101.094 359.612 101.094Z" fill="#EA9F07"/>
<path d="M356.656 100.825C356.656 100.825 376.006 102.438 394.012 97.8689C431.637 88.1939 417.662 59.7064 382.187 71.8001C353.163 81.7439 356.656 100.825 356.656 100.825Z" fill="#F0AE11"/>
<path d="M359.613 101.094C359.613 101.094 349.4 105.125 336.231 105.125C308.819 105.125 304.788 85.2379 331.931 87.1192C354.238 88.7317 359.613 101.094 359.613 101.094Z" fill="#824000"/>
<path d="M359.612 101.094C359.612 101.094 373.05 102.169 385.681 98.944C412.019 92.2252 402.075 72.3377 377.619 80.669C357.194 87.6565 359.612 101.094 359.612 101.094Z" fill="#824000"/>
<path d="M26.6 41V26.8H32.54C33.5667 26.8 34.4533 26.9733 35.2 27.32C35.9467 27.6667 36.5267 28.16 36.94 28.8C37.3533 29.44 37.56 30.1933 37.56 31.06C37.56 31.7133 37.42 32.2933 37.14 32.8C36.86 33.3067 36.48 33.7133 36 34.02C35.5333 34.3267 35.0133 34.5133 34.44 34.58L34.34 34.38C35.26 34.38 35.9667 34.5867 36.46 35C36.9667 35.4133 37.2533 36.0467 37.32 36.9L37.68 41H35.04L34.74 37.28C34.7 36.72 34.52 36.3067 34.2 36.04C33.88 35.7733 33.3467 35.64 32.6 35.64H29.2V41H26.6ZM29.2 33.36H32.38C33.1667 33.36 33.78 33.1733 34.22 32.8C34.66 32.4267 34.88 31.9 34.88 31.22C34.88 30.5267 34.6533 29.9933 34.2 29.62C33.76 29.2467 33.1133 29.06 32.26 29.06H29.2V33.36ZM44.1966 41.24C43.1299 41.24 42.2032 41.0133 41.4166 40.56C40.6299 40.0933 40.0232 39.44 39.5966 38.6C39.1699 37.76 38.9566 36.78 38.9566 35.66C38.9566 34.54 39.1699 33.5667 39.5966 32.74C40.0232 31.9 40.6232 31.2467 41.3966 30.78C42.1832 30.3133 43.0966 30.08 44.1366 30.08C45.1499 30.08 46.0366 30.3067 46.7966 30.76C47.5699 31.2133 48.1632 31.8667 48.5766 32.72C48.9899 33.5733 49.1966 34.6 49.1966 35.8V36.38H41.6166C41.6699 37.3133 41.9232 38.02 42.3766 38.5C42.8432 38.9667 43.4566 39.2 44.2166 39.2C44.7899 39.2 45.2632 39.0733 45.6366 38.82C46.0232 38.5533 46.2899 38.1867 46.4366 37.72L49.0566 37.88C48.7632 38.92 48.1832 39.74 47.3166 40.34C46.4632 40.94 45.4232 41.24 44.1966 41.24ZM41.6166 34.66H46.5566C46.5032 33.7933 46.2566 33.1533 45.8166 32.74C45.3766 32.3133 44.8166 32.1 44.1366 32.1C43.4566 32.1 42.8899 32.32 42.4366 32.76C41.9966 33.2 41.7232 33.8333 41.6166 34.66ZM51.6075 41V29.9C51.6075 28.94 51.8742 28.1867 52.4075 27.64C52.9542 27.08 53.7875 26.8 54.9075 26.8H56.9875V28.78H55.3875C54.9742 28.78 54.6675 28.8867 54.4675 29.1C54.2808 29.3133 54.1875 29.6267 54.1875 30.04V41H51.6075ZM50.0875 32.58V30.6H56.8475V32.58H50.0875ZM62.5809 41.24C61.5143 41.24 60.5876 41.0133 59.8009 40.56C59.0143 40.0933 58.4076 39.44 57.9809 38.6C57.5543 37.76 57.3409 36.78 57.3409 35.66C57.3409 34.54 57.5543 33.5667 57.9809 32.74C58.4076 31.9 59.0076 31.2467 59.7809 30.78C60.5676 30.3133 61.4809 30.08 62.5209 30.08C63.5343 30.08 64.4209 30.3067 65.1809 30.76C65.9543 31.2133 66.5476 31.8667 66.9609 32.72C67.3743 33.5733 67.5809 34.6 67.5809 35.8V36.38H60.0009C60.0543 37.3133 60.3076 38.02 60.7609 38.5C61.2276 38.9667 61.8409 39.2 62.6009 39.2C63.1743 39.2 63.6476 39.0733 64.0209 38.82C64.4076 38.5533 64.6743 38.1867 64.8209 37.72L67.4409 37.88C67.1476 38.92 66.5676 39.74 65.7009 40.34C64.8476 40.94 63.8076 41.24 62.5809 41.24ZM60.0009 34.66H64.9409C64.8876 33.7933 64.6409 33.1533 64.2009 32.74C63.7609 32.3133 63.2009 32.1 62.5209 32.1C61.8409 32.1 61.2743 32.32 60.8209 32.76C60.3809 33.2 60.1076 33.8333 60.0009 34.66ZM69.282 41V30.32H71.682L71.782 33.28L71.562 33.24C71.722 32.2133 72.022 31.4733 72.462 31.02C72.9154 30.5533 73.5287 30.32 74.302 30.32H75.282V32.52H74.282C73.7354 32.52 73.282 32.6 72.922 32.76C72.562 32.92 72.2887 33.1733 72.102 33.52C71.9287 33.8533 71.842 34.2933 71.842 34.84V41H69.282ZM76.5211 41V30.32H78.9211L79.0211 33.28L78.8011 33.24C78.9611 32.2133 79.2611 31.4733 79.7011 31.02C80.1544 30.5533 80.7678 30.32 81.5411 30.32H82.5211V32.52H81.5211C80.9744 32.52 80.5211 32.6 80.1611 32.76C79.8011 32.92 79.5278 33.1733 79.3411 33.52C79.1678 33.8533 79.0811 34.2933 79.0811 34.84V41H76.5211ZM86.782 41.24C85.662 41.24 84.762 40.9867 84.082 40.48C83.402 39.96 83.062 39.24 83.062 38.32C83.062 37.4 83.3487 36.68 83.922 36.16C84.4954 35.64 85.3687 35.2667 86.542 35.04L90.082 34.34C90.082 33.58 89.9087 33.0133 89.562 32.64C89.2154 32.2533 88.702 32.06 88.022 32.06C87.4087 32.06 86.922 32.2067 86.562 32.5C86.2154 32.78 85.9754 33.1867 85.842 33.72L83.242 33.6C83.4554 32.4667 83.9754 31.6 84.802 31C85.6287 30.3867 86.702 30.08 88.022 30.08C89.542 30.08 90.6887 30.4667 91.462 31.24C92.2487 32 92.642 33.0933 92.642 34.52V38.4C92.642 38.68 92.6887 38.8733 92.782 38.98C92.8887 39.0867 93.042 39.14 93.242 39.14H93.582V41C93.502 41.0267 93.3687 41.0467 93.182 41.06C93.0087 41.0733 92.8287 41.08 92.642 41.08C92.202 41.08 91.8087 41.0133 91.462 40.88C91.1154 40.7333 90.8487 40.4867 90.662 40.14C90.4754 39.78 90.382 39.2933 90.382 38.68L90.602 38.84C90.4954 39.3067 90.262 39.7267 89.902 40.1C89.5554 40.46 89.1154 40.74 88.582 40.94C88.0487 41.14 87.4487 41.24 86.782 41.24ZM87.302 39.38C87.8754 39.38 88.3687 39.2667 88.782 39.04C89.1954 38.8133 89.5154 38.5 89.742 38.1C89.9687 37.7 90.082 37.2267 90.082 36.68V36.08L87.322 36.64C86.7487 36.76 86.3354 36.94 86.082 37.18C85.842 37.4067 85.722 37.7067 85.722 38.08C85.722 38.4933 85.8554 38.8133 86.122 39.04C86.402 39.2667 86.7954 39.38 87.302 39.38ZM97.3483 41C96.5749 41 95.9549 40.8 95.4883 40.4C95.0216 40 94.7883 39.36 94.7883 38.48V26.8H97.3483V38.22C97.3483 38.4867 97.4149 38.6867 97.5483 38.82C97.6949 38.9533 97.8949 39.02 98.1483 39.02H98.9283V41H97.3483ZM109.492 41.24C108.426 41.24 107.499 41.0133 106.712 40.56C105.926 40.0933 105.312 39.44 104.872 38.6C104.446 37.76 104.232 36.78 104.232 35.66C104.232 34.54 104.446 33.5667 104.872 32.74C105.312 31.9 105.926 31.2467 106.712 30.78C107.499 30.3133 108.426 30.08 109.492 30.08C110.399 30.08 111.206 30.24 111.912 30.56C112.619 30.88 113.192 31.34 113.632 31.94C114.086 32.5267 114.366 33.2467 114.472 34.1L111.832 34.24C111.726 33.56 111.459 33.0467 111.032 32.7C110.619 32.34 110.106 32.16 109.492 32.16C108.666 32.16 108.026 32.4733 107.572 33.1C107.119 33.7133 106.892 34.5667 106.892 35.66C106.892 36.7667 107.119 37.6267 107.572 38.24C108.026 38.8533 108.666 39.16 109.492 39.16C110.119 39.16 110.639 38.98 111.052 38.62C111.479 38.26 111.739 37.7 111.832 36.94L114.472 37.06C114.366 37.9133 114.092 38.6533 113.652 39.28C113.212 39.9067 112.639 40.3933 111.932 40.74C111.226 41.0733 110.412 41.24 109.492 41.24ZM120.599 41.24C119.545 41.24 118.619 41.0133 117.819 40.56C117.032 40.0933 116.419 39.44 115.979 38.6C115.552 37.76 115.339 36.78 115.339 35.66C115.339 34.5267 115.552 33.5467 115.979 32.72C116.419 31.88 117.032 31.2333 117.819 30.78C118.619 30.3133 119.545 30.08 120.599 30.08C121.652 30.08 122.572 30.3133 123.359 30.78C124.145 31.2333 124.752 31.88 125.179 32.72C125.619 33.5467 125.839 34.5267 125.839 35.66C125.839 36.78 125.619 37.76 125.179 38.6C124.752 39.44 124.145 40.0933 123.359 40.56C122.572 41.0133 121.652 41.24 120.599 41.24ZM120.599 39.16C121.425 39.16 122.059 38.8533 122.499 38.24C122.952 37.6267 123.179 36.7667 123.179 35.66C123.179 34.5667 122.952 33.7133 122.499 33.1C122.059 32.4733 121.425 32.16 120.599 32.16C119.772 32.16 119.132 32.4733 118.679 33.1C118.225 33.7133 117.999 34.5667 117.999 35.66C117.999 36.7667 118.225 37.6267 118.679 38.24C119.132 38.8533 119.772 39.16 120.599 39.16ZM131.314 41.24C130.407 41.24 129.621 41.0133 128.954 40.56C128.301 40.1067 127.794 39.46 127.434 38.62C127.074 37.78 126.894 36.7933 126.894 35.66C126.894 34.5267 127.074 33.54 127.434 32.7C127.794 31.86 128.307 31.2133 128.974 30.76C129.641 30.3067 130.421 30.08 131.314 30.08C132.061 30.08 132.714 30.2333 133.274 30.54C133.847 30.8467 134.281 31.28 134.574 31.84V26.8H137.134V41H134.694L134.634 39.42C134.341 39.9933 133.901 40.44 133.314 40.76C132.727 41.08 132.061 41.24 131.314 41.24ZM132.094 39.16C132.627 39.16 133.074 39.0267 133.434 38.76C133.807 38.4933 134.087 38.1 134.274 37.58C134.474 37.0467 134.574 36.4067 134.574 35.66C134.574 34.9 134.474 34.26 134.274 33.74C134.087 33.22 133.807 32.8267 133.434 32.56C133.074 32.2933 132.627 32.16 132.094 32.16C131.321 32.16 130.701 32.4733 130.234 33.1C129.781 33.7133 129.554 34.5667 129.554 35.66C129.554 36.7267 129.781 37.58 130.234 38.22C130.701 38.8467 131.321 39.16 132.094 39.16ZM144.061 41.24C142.994 41.24 142.067 41.0133 141.281 40.56C140.494 40.0933 139.887 39.44 139.461 38.6C139.034 37.76 138.821 36.78 138.821 35.66C138.821 34.54 139.034 33.5667 139.461 32.74C139.887 31.9 140.487 31.2467 141.261 30.78C142.047 30.3133 142.961 30.08 144.001 30.08C145.014 30.08 145.901 30.3067 146.661 30.76C147.434 31.2133 148.027 31.8667 148.441 32.72C148.854 33.5733 149.061 34.6 149.061 35.8V36.38H141.481C141.534 37.3133 141.787 38.02 142.241 38.5C142.707 38.9667 143.321 39.2 144.081 39.2C144.654 39.2 145.127 39.0733 145.501 38.82C145.887 38.5533 146.154 38.1867 146.301 37.72L148.921 37.88C148.627 38.92 148.047 39.74 147.181 40.34C146.327 40.94 145.287 41.24 144.061 41.24ZM141.481 34.66H146.421C146.367 33.7933 146.121 33.1533 145.681 32.74C145.241 32.3133 144.681 32.1 144.001 32.1C143.321 32.1 142.754 32.32 142.301 32.76C141.861 33.2 141.587 33.8333 141.481 34.66ZM154.784 33.94V31.82H164.144V33.94H154.784ZM154.784 38.4V36.26H164.144V38.4H154.784ZM171.587 41V29.9C171.587 28.94 171.854 28.1867 172.387 27.64C172.934 27.08 173.767 26.8 174.887 26.8H176.967V28.78H175.367C174.954 28.78 174.647 28.8867 174.447 29.1C174.261 29.3133 174.167 29.6267 174.167 30.04V41H171.587ZM170.067 32.58V30.6H176.827V32.58H170.067ZM178.214 41V30.32H180.614L180.714 33.28L180.494 33.24C180.654 32.2133 180.954 31.4733 181.394 31.02C181.847 30.5533 182.461 30.32 183.234 30.32H184.214V32.52H183.214C182.667 32.52 182.214 32.6 181.854 32.76C181.494 32.92 181.221 33.1733 181.034 33.52C180.861 33.8533 180.774 34.2933 180.774 34.84V41H178.214ZM189.917 41.24C188.85 41.24 187.924 41.0133 187.137 40.56C186.35 40.0933 185.744 39.44 185.317 38.6C184.89 37.76 184.677 36.78 184.677 35.66C184.677 34.54 184.89 33.5667 185.317 32.74C185.744 31.9 186.344 31.2467 187.117 30.78C187.904 30.3133 188.817 30.08 189.857 30.08C190.87 30.08 191.757 30.3067 192.517 30.76C193.29 31.2133 193.884 31.8667 194.297 32.72C194.71 33.5733 194.917 34.6 194.917 35.8V36.38H187.337C187.39 37.3133 187.644 38.02 188.097 38.5C188.564 38.9667 189.177 39.2 189.937 39.2C190.51 39.2 190.984 39.0733 191.357 38.82C191.744 38.5533 192.01 38.1867 192.157 37.72L194.777 37.88C194.484 38.92 193.904 39.74 193.037 40.34C192.184 40.94 191.144 41.24 189.917 41.24ZM187.337 34.66H192.277C192.224 33.7933 191.977 33.1533 191.537 32.74C191.097 32.3133 190.537 32.1 189.857 32.1C189.177 32.1 188.61 32.32 188.157 32.76C187.717 33.2 187.444 33.8333 187.337 34.66ZM201.238 41.24C200.171 41.24 199.245 41.0133 198.458 40.56C197.671 40.0933 197.065 39.44 196.638 38.6C196.211 37.76 195.998 36.78 195.998 35.66C195.998 34.54 196.211 33.5667 196.638 32.74C197.065 31.9 197.665 31.2467 198.438 30.78C199.225 30.3133 200.138 30.08 201.178 30.08C202.191 30.08 203.078 30.3067 203.838 30.76C204.611 31.2133 205.205 31.8667 205.618 32.72C206.031 33.5733 206.238 34.6 206.238 35.8V36.38H198.658C198.711 37.3133 198.965 38.02 199.418 38.5C199.885 38.9667 200.498 39.2 201.258 39.2C201.831 39.2 202.305 39.0733 202.678 38.82C203.065 38.5533 203.331 38.1867 203.478 37.72L206.098 37.88C205.805 38.92 205.225 39.74 204.358 40.34C203.505 40.94 202.465 41.24 201.238 41.24ZM198.658 34.66H203.598C203.545 33.7933 203.298 33.1533 202.858 32.74C202.418 32.3133 201.858 32.1 201.178 32.1C200.498 32.1 199.931 32.32 199.478 32.76C199.038 33.2 198.765 33.8333 198.658 34.66ZM212.561 41V30.32H214.881L214.961 32.94L214.721 32.82C214.841 32.2467 215.048 31.76 215.341 31.36C215.648 30.9467 216.014 30.6333 216.441 30.42C216.881 30.1933 217.361 30.08 217.881 30.08C218.788 30.08 219.521 30.34 220.081 30.86C220.641 31.3667 220.994 32.0667 221.141 32.96H220.801C220.921 32.3333 221.128 31.8133 221.421 31.4C221.714 30.9733 222.081 30.6467 222.521 30.42C222.974 30.1933 223.481 30.08 224.041 30.08C224.774 30.08 225.408 30.24 225.941 30.56C226.474 30.8667 226.881 31.32 227.161 31.92C227.454 32.52 227.601 33.26 227.601 34.14V41H225.041V34.8C225.041 33.92 224.888 33.26 224.581 32.82C224.288 32.38 223.834 32.16 223.221 32.16C222.808 32.16 222.454 32.2667 222.161 32.48C221.868 32.6933 221.641 33.0067 221.481 33.42C221.334 33.82 221.261 34.3067 221.261 34.88V41H218.881V34.88C218.881 34 218.748 33.3267 218.481 32.86C218.214 32.3933 217.754 32.16 217.101 32.16C216.688 32.16 216.334 32.2667 216.041 32.48C215.761 32.6933 215.534 33.0067 215.361 33.42C215.201 33.82 215.121 34.3067 215.121 34.88V41H212.561ZM234.479 41.24C233.426 41.24 232.499 41.0133 231.699 40.56C230.912 40.0933 230.299 39.44 229.859 38.6C229.432 37.76 229.219 36.78 229.219 35.66C229.219 34.5267 229.432 33.5467 229.859 32.72C230.299 31.88 230.912 31.2333 231.699 30.78C232.499 30.3133 233.426 30.08 234.479 30.08C235.532 30.08 236.452 30.3133 237.239 30.78C238.026 31.2333 238.632 31.88 239.059 32.72C239.499 33.5467 239.719 34.5267 239.719 35.66C239.719 36.78 239.499 37.76 239.059 38.6C238.632 39.44 238.026 40.0933 237.239 40.56C236.452 41.0133 235.532 41.24 234.479 41.24ZM234.479 39.16C235.306 39.16 235.939 38.8533 236.379 38.24C236.832 37.6267 237.059 36.7667 237.059 35.66C237.059 34.5667 236.832 33.7133 236.379 33.1C235.939 32.4733 235.306 32.16 234.479 32.16C233.652 32.16 233.012 32.4733 232.559 33.1C232.106 33.7133 231.879 34.5667 231.879 35.66C231.879 36.7667 232.106 37.6267 232.559 38.24C233.012 38.8533 233.652 39.16 234.479 39.16ZM241.395 41V30.32H243.715L243.815 33.32L243.515 33.2C243.621 32.4533 243.841 31.8533 244.175 31.4C244.508 30.9467 244.915 30.6133 245.395 30.4C245.875 30.1867 246.401 30.08 246.975 30.08C247.761 30.08 248.421 30.2533 248.955 30.6C249.501 30.9467 249.915 31.4267 250.195 32.04C250.475 32.64 250.615 33.34 250.615 34.14V41H248.055V34.96C248.055 34.36 247.995 33.8533 247.875 33.44C247.755 33.0267 247.555 32.7133 247.275 32.5C247.008 32.2733 246.648 32.16 246.195 32.16C245.515 32.16 244.968 32.4 244.555 32.88C244.155 33.36 243.955 34.0533 243.955 34.96V41H241.395ZM257.472 41.24C256.406 41.24 255.479 41.0133 254.692 40.56C253.906 40.0933 253.299 39.44 252.872 38.6C252.446 37.76 252.232 36.78 252.232 35.66C252.232 34.54 252.446 33.5667 252.872 32.74C253.299 31.9 253.899 31.2467 254.672 30.78C255.459 30.3133 256.372 30.08 257.412 30.08C258.426 30.08 259.312 30.3067 260.072 30.76C260.846 31.2133 261.439 31.8667 261.852 32.72C262.266 33.5733 262.472 34.6 262.472 35.8V36.38H254.892C254.946 37.3133 255.199 38.02 255.652 38.5C256.119 38.9667 256.732 39.2 257.492 39.2C258.066 39.2 258.539 39.0733 258.912 38.82C259.299 38.5533 259.566 38.1867 259.712 37.72L262.332 37.88C262.039 38.92 261.459 39.74 260.592 40.34C259.739 40.94 258.699 41.24 257.472 41.24ZM254.892 34.66H259.832C259.779 33.7933 259.532 33.1533 259.092 32.74C258.652 32.3133 258.092 32.1 257.412 32.1C256.732 32.1 256.166 32.32 255.712 32.76C255.272 33.2 254.999 33.8333 254.892 34.66ZM264.562 44V42.02H265.922C266.269 42.02 266.522 41.9667 266.682 41.86C266.856 41.7533 266.989 41.5733 267.082 41.32L267.382 40.58H266.642L262.822 30.32H265.482L268.162 38.18L270.722 30.32H273.382L269.202 42.12C268.962 42.7867 268.622 43.2667 268.182 43.56C267.756 43.8533 267.156 44 266.382 44H264.562ZM275.129 36.6C275.075 36.1467 275.015 35.6 274.949 34.96C274.882 34.32 274.822 33.6667 274.769 33C274.715 32.32 274.689 31.7133 274.689 31.18V26.8H277.289V31.18C277.289 31.7133 277.262 32.32 277.209 33C277.169 33.6667 277.115 34.32 277.049 34.96C276.982 35.6 276.922 36.1467 276.869 36.6H275.129ZM274.469 41V38.2H277.389V41H274.469Z" fill="white"/>
<path d="M29.032 64.192C28.376 64.192 27.804 64.068 27.316 63.82C26.828 63.572 26.44 63.232 26.152 62.8C25.872 62.36 25.708 61.852 25.66 61.276L26.74 61.204C26.796 61.628 26.92 61.988 27.112 62.284C27.304 62.58 27.56 62.804 27.88 62.956C28.208 63.108 28.6 63.184 29.056 63.184C29.456 63.184 29.796 63.132 30.076 63.028C30.356 62.924 30.568 62.772 30.712 62.572C30.864 62.372 30.94 62.128 30.94 61.84C30.94 61.576 30.876 61.344 30.748 61.144C30.628 60.936 30.392 60.748 30.04 60.58C29.696 60.404 29.184 60.232 28.504 60.064C27.848 59.896 27.324 59.712 26.932 59.512C26.548 59.312 26.268 59.068 26.092 58.78C25.924 58.492 25.84 58.136 25.84 57.712C25.84 57.232 25.952 56.812 26.176 56.452C26.408 56.084 26.736 55.8 27.16 55.6C27.584 55.392 28.088 55.288 28.672 55.288C29.296 55.288 29.832 55.408 30.28 55.648C30.728 55.88 31.084 56.2 31.348 56.608C31.612 57.016 31.776 57.48 31.84 58L30.76 58.072C30.712 57.728 30.6 57.424 30.424 57.16C30.256 56.888 30.024 56.676 29.728 56.524C29.432 56.372 29.072 56.296 28.648 56.296C28.12 56.296 27.7 56.424 27.388 56.68C27.076 56.928 26.92 57.256 26.92 57.664C26.92 57.928 26.98 58.148 27.1 58.324C27.228 58.492 27.452 58.644 27.772 58.78C28.092 58.908 28.552 59.048 29.152 59.2C29.864 59.376 30.428 59.588 30.844 59.836C31.268 60.076 31.568 60.356 31.744 60.676C31.928 60.996 32.02 61.36 32.02 61.768C32.02 62.264 31.892 62.696 31.636 63.064C31.38 63.424 31.028 63.704 30.58 63.904C30.132 64.096 29.616 64.192 29.032 64.192ZM33.2917 64V55.48H34.2997V59.044L34.1797 59.02C34.2597 58.668 34.3957 58.38 34.5877 58.156C34.7797 57.932 35.0157 57.768 35.2957 57.664C35.5757 57.552 35.8837 57.496 36.2197 57.496C36.6757 57.496 37.0597 57.6 37.3717 57.808C37.6917 58.008 37.9317 58.292 38.0917 58.66C38.2597 59.02 38.3437 59.436 38.3437 59.908V64H37.3357V60.196C37.3357 59.58 37.2237 59.124 36.9997 58.828C36.7837 58.532 36.4517 58.384 36.0037 58.384C35.4917 58.384 35.0797 58.54 34.7677 58.852C34.4557 59.164 34.2997 59.616 34.2997 60.208V64H33.2917ZM41.6832 64.144C41.0272 64.144 40.5032 63.992 40.1112 63.688C39.7272 63.384 39.5352 62.96 39.5352 62.416C39.5352 61.872 39.6952 61.444 40.0152 61.132C40.3352 60.82 40.8432 60.6 41.5392 60.472L43.7952 60.052C43.7952 59.516 43.6672 59.116 43.4112 58.852C43.1632 58.588 42.7872 58.456 42.2832 58.456C41.8432 58.456 41.4952 58.556 41.2392 58.756C40.9832 58.948 40.8072 59.228 40.7112 59.596L39.6432 59.512C39.7632 58.912 40.0512 58.428 40.5072 58.06C40.9712 57.684 41.5632 57.496 42.2832 57.496C43.0992 57.496 43.7232 57.728 44.1552 58.192C44.5872 58.648 44.8032 59.28 44.8032 60.088V62.716C44.8032 62.86 44.8272 62.964 44.8752 63.028C44.9312 63.084 45.0192 63.112 45.1392 63.112H45.3912V64C45.3592 64.008 45.3072 64.012 45.2352 64.012C45.1632 64.02 45.0872 64.024 45.0072 64.024C44.7192 64.024 44.4832 63.98 44.2992 63.892C44.1232 63.796 43.9952 63.652 43.9152 63.46C43.8352 63.26 43.7952 63 43.7952 62.68L43.9152 62.704C43.8592 62.976 43.7232 63.224 43.5072 63.448C43.2912 63.664 43.0232 63.836 42.7032 63.964C42.3832 64.084 42.0432 64.144 41.6832 64.144ZM41.7792 63.256C42.2032 63.256 42.5632 63.176 42.8592 63.016C43.1632 62.848 43.3952 62.624 43.5552 62.344C43.7152 62.056 43.7952 61.736 43.7952 61.384V60.928L41.7312 61.312C41.2992 61.392 40.9992 61.516 40.8312 61.684C40.6712 61.844 40.5912 62.056 40.5912 62.32C40.5912 62.616 40.6952 62.848 40.9032 63.016C41.1192 63.176 41.4112 63.256 41.7792 63.256ZM46.3497 64V57.64H47.2377L47.2857 59.248L47.1897 59.212C47.2697 58.668 47.4417 58.272 47.7057 58.024C47.9777 57.768 48.3377 57.64 48.7857 57.64H49.4097V58.6H48.7977C48.4777 58.6 48.2097 58.66 47.9937 58.78C47.7857 58.892 47.6257 59.064 47.5137 59.296C47.4097 59.52 47.3577 59.808 47.3577 60.16V64H46.3497ZM52.7201 64.144C52.1201 64.144 51.6001 64.008 51.1601 63.736C50.7281 63.464 50.3921 63.08 50.1521 62.584C49.9201 62.08 49.8041 61.492 49.8041 60.82C49.8041 60.148 49.9201 59.564 50.1521 59.068C50.3921 58.572 50.7241 58.188 51.1481 57.916C51.5801 57.636 52.0881 57.496 52.6721 57.496C53.2241 57.496 53.7121 57.628 54.1361 57.892C54.5601 58.148 54.8881 58.524 55.1201 59.02C55.3601 59.516 55.4801 60.12 55.4801 60.832V61.132H50.8601C50.9001 61.812 51.0801 62.324 51.4001 62.668C51.7281 63.012 52.1681 63.184 52.7201 63.184C53.1361 63.184 53.4761 63.088 53.7401 62.896C54.0121 62.696 54.2001 62.436 54.3041 62.116L55.3841 62.2C55.2161 62.768 54.8961 63.236 54.4241 63.604C53.9601 63.964 53.3921 64.144 52.7201 64.144ZM50.8601 60.244H54.3761C54.3281 59.628 54.1481 59.176 53.8361 58.888C53.5321 58.6 53.1441 58.456 52.6721 58.456C52.1841 58.456 51.7801 58.608 51.4601 58.912C51.1481 59.208 50.9481 59.652 50.8601 60.244ZM59.8787 65.8V64.912H60.6107C60.8347 64.912 60.9987 64.876 61.1027 64.804C61.2147 64.74 61.2987 64.632 61.3547 64.48L61.5827 63.88H61.2347L58.9067 57.64H60.0107L61.9067 62.944L63.7187 57.64H64.8227L62.2427 64.804C62.1227 65.148 61.9427 65.4 61.7027 65.56C61.4627 65.72 61.1307 65.8 60.7067 65.8H59.8787ZM68.0356 64.144C67.4516 64.144 66.9396 64.008 66.4996 63.736C66.0596 63.464 65.7196 63.08 65.4796 62.584C65.2396 62.08 65.1196 61.492 65.1196 60.82C65.1196 60.14 65.2396 59.552 65.4796 59.056C65.7196 58.56 66.0596 58.176 66.4996 57.904C66.9396 57.632 67.4516 57.496 68.0356 57.496C68.6196 57.496 69.1276 57.632 69.5596 57.904C69.9996 58.176 70.3396 58.56 70.5796 59.056C70.8196 59.552 70.9396 60.14 70.9396 60.82C70.9396 61.492 70.8196 62.08 70.5796 62.584C70.3396 63.08 69.9996 63.464 69.5596 63.736C69.1276 64.008 68.6196 64.144 68.0356 64.144ZM68.0356 63.184C68.6196 63.184 69.0716 62.976 69.3916 62.56C69.7196 62.136 69.8836 61.556 69.8836 60.82C69.8836 60.084 69.7196 59.508 69.3916 59.092C69.0716 58.668 68.6196 58.456 68.0356 58.456C67.4516 58.456 66.9956 58.668 66.6676 59.092C66.3396 59.508 66.1756 60.084 66.1756 60.82C66.1756 61.556 66.3396 62.136 66.6676 62.56C66.9956 62.976 67.4516 63.184 68.0356 63.184ZM74.2213 64.144C73.5893 64.144 73.0813 63.932 72.6973 63.508C72.3213 63.076 72.1333 62.484 72.1333 61.732V57.64H73.1413V61.456C73.1413 62.072 73.2493 62.528 73.4653 62.824C73.6893 63.112 74.0293 63.256 74.4853 63.256C74.9893 63.256 75.3853 63.096 75.6733 62.776C75.9613 62.448 76.1053 62 76.1053 61.432V57.64H77.1133V64H76.1533V62.428L76.3093 62.512C76.1813 63.032 75.9373 63.436 75.5773 63.724C75.2173 64.004 74.7653 64.144 74.2213 64.144ZM78.8556 64V57.64H79.7436L79.7916 59.248L79.6956 59.212C79.7756 58.668 79.9476 58.272 80.2116 58.024C80.4836 57.768 80.8436 57.64 81.2916 57.64H81.9156V58.6H81.3036C80.9836 58.6 80.7156 58.66 80.4996 58.78C80.2916 58.892 80.1316 59.064 80.0196 59.296C79.9156 59.52 79.8636 59.808 79.8636 60.16V64H78.8556ZM86.0425 64V57.64H86.9305L86.9785 59.248L86.8825 59.212C86.9625 58.668 87.1345 58.272 87.3985 58.024C87.6705 57.768 88.0305 57.64 88.4785 57.64H89.1025V58.6H88.4905C88.1705 58.6 87.9025 58.66 87.6865 58.78C87.4785 58.892 87.3185 59.064 87.2065 59.296C87.1025 59.52 87.0505 59.808 87.0505 60.16V64H86.0425ZM92.4129 64.144C91.8129 64.144 91.2929 64.008 90.8529 63.736C90.4209 63.464 90.0849 63.08 89.8449 62.584C89.6129 62.08 89.4969 61.492 89.4969 60.82C89.4969 60.148 89.6129 59.564 89.8449 59.068C90.0849 58.572 90.4169 58.188 90.8409 57.916C91.2729 57.636 91.7809 57.496 92.3649 57.496C92.9169 57.496 93.4049 57.628 93.8289 57.892C94.2529 58.148 94.5809 58.524 94.8129 59.02C95.0529 59.516 95.1729 60.12 95.1729 60.832V61.132H90.5529C90.5929 61.812 90.7729 62.324 91.0929 62.668C91.4209 63.012 91.8609 63.184 92.4129 63.184C92.8289 63.184 93.1689 63.088 93.4329 62.896C93.7049 62.696 93.8929 62.436 93.9969 62.116L95.0769 62.2C94.9089 62.768 94.5889 63.236 94.1169 63.604C93.6529 63.964 93.0849 64.144 92.4129 64.144ZM90.5529 60.244H94.0689C94.0209 59.628 93.8409 59.176 93.5289 58.888C93.2249 58.6 92.8369 58.456 92.3649 58.456C91.8769 58.456 91.4729 58.608 91.1529 58.912C90.8409 59.208 90.6409 59.652 90.5529 60.244ZM96.7362 64V57.064C96.7362 56.592 96.8722 56.212 97.1442 55.924C97.4162 55.628 97.8402 55.48 98.4162 55.48H99.4242V56.368H98.4882C98.2402 56.368 98.0522 56.436 97.9242 56.572C97.8042 56.708 97.7442 56.896 97.7442 57.136V64H96.7362ZM95.8722 58.528V57.64H99.3402V58.528H95.8722ZM102.623 64.144C102.023 64.144 101.503 64.008 101.063 63.736C100.631 63.464 100.295 63.08 100.055 62.584C99.8232 62.08 99.7072 61.492 99.7072 60.82C99.7072 60.148 99.8232 59.564 100.055 59.068C100.295 58.572 100.627 58.188 101.051 57.916C101.483 57.636 101.991 57.496 102.575 57.496C103.127 57.496 103.615 57.628 104.039 57.892C104.463 58.148 104.791 58.524 105.023 59.02C105.263 59.516 105.383 60.12 105.383 60.832V61.132H100.763C100.803 61.812 100.983 62.324 101.303 62.668C101.631 63.012 102.071 63.184 102.623 63.184C103.039 63.184 103.379 63.088 103.643 62.896C103.915 62.696 104.103 62.436 104.207 62.116L105.287 62.2C105.119 62.768 104.799 63.236 104.327 63.604C103.863 63.964 103.295 64.144 102.623 64.144ZM100.763 60.244H104.279C104.231 59.628 104.051 59.176 103.739 58.888C103.435 58.6 103.047 58.456 102.575 58.456C102.087 58.456 101.683 58.608 101.363 58.912C101.051 59.208 100.851 59.652 100.763 60.244ZM106.569 64V57.64H107.457L107.505 59.248L107.409 59.212C107.489 58.668 107.661 58.272 107.925 58.024C108.197 57.768 108.557 57.64 109.005 57.64H109.629V58.6H109.017C108.697 58.6 108.429 58.66 108.213 58.78C108.005 58.892 107.845 59.064 107.733 59.296C107.629 59.52 107.577 59.808 107.577 60.16V64H106.569ZM110.455 64V57.64H111.343L111.391 59.248L111.295 59.212C111.375 58.668 111.547 58.272 111.811 58.024C112.083 57.768 112.443 57.64 112.891 57.64H113.515V58.6H112.903C112.583 58.6 112.315 58.66 112.099 58.78C111.891 58.892 111.731 59.064 111.619 59.296C111.515 59.52 111.463 59.808 111.463 60.16V64H110.455ZM116.057 64.144C115.401 64.144 114.877 63.992 114.485 63.688C114.101 63.384 113.909 62.96 113.909 62.416C113.909 61.872 114.069 61.444 114.389 61.132C114.709 60.82 115.217 60.6 115.913 60.472L118.169 60.052C118.169 59.516 118.041 59.116 117.785 58.852C117.537 58.588 117.161 58.456 116.657 58.456C116.217 58.456 115.869 58.556 115.613 58.756C115.357 58.948 115.181 59.228 115.085 59.596L114.017 59.512C114.137 58.912 114.425 58.428 114.881 58.06C115.345 57.684 115.937 57.496 116.657 57.496C117.473 57.496 118.097 57.728 118.529 58.192C118.961 58.648 119.177 59.28 119.177 60.088V62.716C119.177 62.86 119.201 62.964 119.249 63.028C119.305 63.084 119.393 63.112 119.513 63.112H119.765V64C119.733 64.008 119.681 64.012 119.609 64.012C119.537 64.02 119.461 64.024 119.381 64.024C119.093 64.024 118.857 63.98 118.673 63.892C118.497 63.796 118.369 63.652 118.289 63.46C118.209 63.26 118.169 63 118.169 62.68L118.289 62.704C118.233 62.976 118.097 63.224 117.881 63.448C117.665 63.664 117.397 63.836 117.077 63.964C116.757 64.084 116.417 64.144 116.057 64.144ZM116.153 63.256C116.577 63.256 116.937 63.176 117.233 63.016C117.537 62.848 117.769 62.624 117.929 62.344C118.089 62.056 118.169 61.736 118.169 61.384V60.928L116.105 61.312C115.673 61.392 115.373 61.516 115.205 61.684C115.045 61.844 114.965 62.056 114.965 62.32C114.965 62.616 115.069 62.848 115.277 63.016C115.493 63.176 115.785 63.256 116.153 63.256ZM121.902 64C121.534 64 121.234 63.904 121.002 63.712C120.77 63.52 120.654 63.216 120.654 62.8V55.48H121.662V62.716C121.662 62.844 121.694 62.944 121.758 63.016C121.83 63.08 121.93 63.112 122.058 63.112H122.61V64H121.902ZM128.977 64.144C128.385 64.144 127.869 64.008 127.429 63.736C126.997 63.464 126.661 63.08 126.421 62.584C126.181 62.08 126.061 61.492 126.061 60.82C126.061 60.148 126.181 59.564 126.421 59.068C126.661 58.572 126.997 58.188 127.429 57.916C127.869 57.636 128.385 57.496 128.977 57.496C129.465 57.496 129.897 57.584 130.273 57.76C130.657 57.928 130.969 58.176 131.209 58.504C131.449 58.832 131.605 59.232 131.677 59.704L130.621 59.776C130.549 59.352 130.365 59.028 130.069 58.804C129.773 58.572 129.409 58.456 128.977 58.456C128.393 58.456 127.937 58.668 127.609 59.092C127.281 59.508 127.117 60.084 127.117 60.82C127.117 61.556 127.281 62.136 127.609 62.56C127.937 62.976 128.393 63.184 128.977 63.184C129.409 63.184 129.773 63.064 130.069 62.824C130.365 62.584 130.549 62.224 130.621 61.744L131.677 61.816C131.605 62.288 131.449 62.7 131.209 63.052C130.969 63.396 130.657 63.664 130.273 63.856C129.897 64.048 129.465 64.144 128.977 64.144ZM135.23 64.144C134.646 64.144 134.134 64.008 133.694 63.736C133.254 63.464 132.914 63.08 132.674 62.584C132.434 62.08 132.314 61.492 132.314 60.82C132.314 60.14 132.434 59.552 132.674 59.056C132.914 58.56 133.254 58.176 133.694 57.904C134.134 57.632 134.646 57.496 135.23 57.496C135.814 57.496 136.322 57.632 136.754 57.904C137.194 58.176 137.534 58.56 137.774 59.056C138.014 59.552 138.134 60.14 138.134 60.82C138.134 61.492 138.014 62.08 137.774 62.584C137.534 63.08 137.194 63.464 136.754 63.736C136.322 64.008 135.814 64.144 135.23 64.144ZM135.23 63.184C135.814 63.184 136.266 62.976 136.586 62.56C136.914 62.136 137.078 61.556 137.078 60.82C137.078 60.084 136.914 59.508 136.586 59.092C136.266 58.668 135.814 58.456 135.23 58.456C134.646 58.456 134.19 58.668 133.862 59.092C133.534 59.508 133.37 60.084 133.37 60.82C133.37 61.556 133.534 62.136 133.862 62.56C134.19 62.976 134.646 63.184 135.23 63.184ZM141.584 64.144C141.032 64.144 140.552 64.008 140.144 63.736C139.744 63.464 139.436 63.08 139.22 62.584C139.004 62.088 138.896 61.5 138.896 60.82C138.896 60.14 139.004 59.552 139.22 59.056C139.436 58.56 139.744 58.176 140.144 57.904C140.552 57.632 141.032 57.496 141.584 57.496C142.008 57.496 142.396 57.588 142.748 57.772C143.1 57.948 143.364 58.2 143.54 58.528V55.48H144.548V64H143.636L143.6 63.04C143.424 63.384 143.156 63.656 142.796 63.856C142.436 64.048 142.032 64.144 141.584 64.144ZM141.788 63.184C142.164 63.184 142.48 63.088 142.736 62.896C143 62.704 143.2 62.432 143.336 62.08C143.472 61.72 143.54 61.3 143.54 60.82C143.54 60.324 143.472 59.9 143.336 59.548C143.2 59.196 143 58.928 142.736 58.744C142.48 58.552 142.164 58.456 141.788 58.456C141.228 58.456 140.78 58.668 140.444 59.092C140.116 59.508 139.952 60.084 139.952 60.82C139.952 61.548 140.116 62.124 140.444 62.548C140.78 62.972 141.228 63.184 141.788 63.184ZM148.652 64.144C148.052 64.144 147.532 64.008 147.092 63.736C146.66 63.464 146.324 63.08 146.084 62.584C145.852 62.08 145.736 61.492 145.736 60.82C145.736 60.148 145.852 59.564 146.084 59.068C146.324 58.572 146.656 58.188 147.08 57.916C147.512 57.636 148.02 57.496 148.604 57.496C149.156 57.496 149.644 57.628 150.068 57.892C150.492 58.148 150.82 58.524 151.052 59.02C151.292 59.516 151.412 60.12 151.412 60.832V61.132H146.792C146.832 61.812 147.012 62.324 147.332 62.668C147.66 63.012 148.1 63.184 148.652 63.184C149.068 63.184 149.408 63.088 149.672 62.896C149.944 62.696 150.132 62.436 150.236 62.116L151.316 62.2C151.148 62.768 150.828 63.236 150.356 63.604C149.892 63.964 149.324 64.144 148.652 64.144ZM146.792 60.244H150.308C150.26 59.628 150.08 59.176 149.768 58.888C149.464 58.6 149.076 58.456 148.604 58.456C148.116 58.456 147.712 58.608 147.392 58.912C147.08 59.208 146.88 59.652 146.792 60.244ZM157.25 64.144C156.594 64.144 156.07 63.992 155.678 63.688C155.294 63.384 155.102 62.96 155.102 62.416C155.102 61.872 155.262 61.444 155.582 61.132C155.902 60.82 156.41 60.6 157.106 60.472L159.362 60.052C159.362 59.516 159.234 59.116 158.978 58.852C158.73 58.588 158.354 58.456 157.85 58.456C157.41 58.456 157.062 58.556 156.806 58.756C156.55 58.948 156.374 59.228 156.278 59.596L155.21 59.512C155.33 58.912 155.618 58.428 156.074 58.06C156.538 57.684 157.13 57.496 157.85 57.496C158.666 57.496 159.29 57.728 159.722 58.192C160.154 58.648 160.37 59.28 160.37 60.088V62.716C160.37 62.86 160.394 62.964 160.442 63.028C160.498 63.084 160.586 63.112 160.706 63.112H160.958V64C160.926 64.008 160.874 64.012 160.802 64.012C160.73 64.02 160.654 64.024 160.574 64.024C160.286 64.024 160.05 63.98 159.866 63.892C159.69 63.796 159.562 63.652 159.482 63.46C159.402 63.26 159.362 63 159.362 62.68L159.482 62.704C159.426 62.976 159.29 63.224 159.074 63.448C158.858 63.664 158.59 63.836 158.27 63.964C157.95 64.084 157.61 64.144 157.25 64.144ZM157.346 63.256C157.77 63.256 158.13 63.176 158.426 63.016C158.73 62.848 158.962 62.624 159.122 62.344C159.282 62.056 159.362 61.736 159.362 61.384V60.928L157.298 61.312C156.866 61.392 156.566 61.516 156.398 61.684C156.238 61.844 156.158 62.056 156.158 62.32C156.158 62.616 156.262 62.848 156.47 63.016C156.686 63.176 156.978 63.256 157.346 63.256ZM161.917 64V57.64H162.841L162.877 59.26L162.757 59.152C162.837 58.776 162.977 58.468 163.177 58.228C163.377 57.98 163.617 57.796 163.897 57.676C164.185 57.556 164.493 57.496 164.821 57.496C165.309 57.496 165.709 57.604 166.021 57.82C166.341 58.036 166.577 58.328 166.729 58.696C166.889 59.056 166.969 59.46 166.969 59.908V64H165.961V60.196C165.961 59.804 165.913 59.476 165.817 59.212C165.729 58.94 165.585 58.736 165.385 58.6C165.185 58.456 164.925 58.384 164.605 58.384C164.117 58.384 163.713 58.54 163.393 58.852C163.081 59.156 162.925 59.604 162.925 60.196V64H161.917ZM170.825 64.144C170.273 64.144 169.793 64.008 169.385 63.736C168.985 63.464 168.677 63.08 168.461 62.584C168.245 62.088 168.137 61.5 168.137 60.82C168.137 60.14 168.245 59.552 168.461 59.056C168.677 58.56 168.985 58.176 169.385 57.904C169.793 57.632 170.273 57.496 170.825 57.496C171.249 57.496 171.637 57.588 171.989 57.772C172.341 57.948 172.605 58.2 172.781 58.528V55.48H173.789V64H172.877L172.841 63.04C172.665 63.384 172.397 63.656 172.037 63.856C171.677 64.048 171.273 64.144 170.825 64.144ZM171.029 63.184C171.405 63.184 171.721 63.088 171.977 62.896C172.241 62.704 172.441 62.432 172.577 62.08C172.713 61.72 172.781 61.3 172.781 60.82C172.781 60.324 172.713 59.9 172.577 59.548C172.441 59.196 172.241 58.928 171.977 58.744C171.721 58.552 171.405 58.456 171.029 58.456C170.469 58.456 170.021 58.668 169.685 59.092C169.357 59.508 169.193 60.084 169.193 60.82C169.193 61.548 169.357 62.124 169.685 62.548C170.021 62.972 170.469 63.184 171.029 63.184ZM180.661 64.144C180.093 64.144 179.609 64.052 179.209 63.868C178.817 63.684 178.509 63.432 178.285 63.112C178.069 62.784 177.945 62.412 177.913 61.996L178.969 61.924C179.033 62.308 179.197 62.616 179.461 62.848C179.725 63.072 180.125 63.184 180.661 63.184C181.093 63.184 181.437 63.116 181.693 62.98C181.957 62.836 182.089 62.608 182.089 62.296C182.089 62.128 182.049 61.988 181.969 61.876C181.889 61.764 181.733 61.668 181.501 61.588C181.269 61.5 180.925 61.416 180.469 61.336C179.861 61.224 179.381 61.088 179.029 60.928C178.685 60.76 178.437 60.556 178.285 60.316C178.141 60.068 178.069 59.776 178.069 59.44C178.069 58.872 178.277 58.408 178.693 58.048C179.109 57.68 179.701 57.496 180.469 57.496C180.989 57.496 181.425 57.592 181.777 57.784C182.137 57.968 182.417 58.216 182.617 58.528C182.825 58.832 182.961 59.168 183.025 59.536L181.969 59.608C181.921 59.384 181.833 59.188 181.705 59.02C181.577 58.844 181.409 58.708 181.201 58.612C180.993 58.508 180.745 58.456 180.457 58.456C180.001 58.456 179.665 58.544 179.449 58.72C179.233 58.896 179.125 59.12 179.125 59.392C179.125 59.6 179.173 59.772 179.269 59.908C179.373 60.036 179.537 60.144 179.761 60.232C179.985 60.312 180.285 60.384 180.661 60.448C181.309 60.56 181.813 60.696 182.173 60.856C182.533 61.016 182.785 61.212 182.929 61.444C183.073 61.676 183.145 61.96 183.145 62.296C183.145 62.688 183.033 63.024 182.809 63.304C182.593 63.576 182.297 63.784 181.921 63.928C181.553 64.072 181.133 64.144 180.661 64.144ZM186.423 64C185.847 64 185.419 63.868 185.139 63.604C184.867 63.34 184.731 62.928 184.731 62.368V56.152H185.739V62.344C185.739 62.632 185.803 62.832 185.931 62.944C186.059 63.056 186.255 63.112 186.519 63.112H187.431V64H186.423ZM183.795 58.528V57.64H187.431V58.528H183.795ZM190.213 64.144C189.557 64.144 189.033 63.992 188.641 63.688C188.257 63.384 188.065 62.96 188.065 62.416C188.065 61.872 188.225 61.444 188.545 61.132C188.865 60.82 189.373 60.6 190.069 60.472L192.325 60.052C192.325 59.516 192.197 59.116 191.941 58.852C191.693 58.588 191.317 58.456 190.813 58.456C190.373 58.456 190.025 58.556 189.769 58.756C189.513 58.948 189.337 59.228 189.241 59.596L188.173 59.512C188.293 58.912 188.581 58.428 189.037 58.06C189.501 57.684 190.093 57.496 190.813 57.496C191.629 57.496 192.253 57.728 192.685 58.192C193.117 58.648 193.333 59.28 193.333 60.088V62.716C193.333 62.86 193.357 62.964 193.405 63.028C193.461 63.084 193.549 63.112 193.669 63.112H193.921V64C193.889 64.008 193.837 64.012 193.765 64.012C193.693 64.02 193.617 64.024 193.537 64.024C193.249 64.024 193.013 63.98 192.829 63.892C192.653 63.796 192.525 63.652 192.445 63.46C192.365 63.26 192.325 63 192.325 62.68L192.445 62.704C192.389 62.976 192.253 63.224 192.037 63.448C191.821 63.664 191.553 63.836 191.233 63.964C190.913 64.084 190.573 64.144 190.213 64.144ZM190.309 63.256C190.733 63.256 191.093 63.176 191.389 63.016C191.693 62.848 191.925 62.624 192.085 62.344C192.245 62.056 192.325 61.736 192.325 61.384V60.928L190.261 61.312C189.829 61.392 189.529 61.516 189.361 61.684C189.201 61.844 189.121 62.056 189.121 62.32C189.121 62.616 189.225 62.848 189.433 63.016C189.649 63.176 189.941 63.256 190.309 63.256ZM194.88 64V57.64H195.768L195.816 59.248L195.72 59.212C195.8 58.668 195.972 58.272 196.236 58.024C196.508 57.768 196.868 57.64 197.316 57.64H197.94V58.6H197.328C197.008 58.6 196.74 58.66 196.524 58.78C196.316 58.892 196.156 59.064 196.044 59.296C195.94 59.52 195.888 59.808 195.888 60.16V64H194.88ZM200.977 64C200.401 64 199.973 63.868 199.693 63.604C199.421 63.34 199.285 62.928 199.285 62.368V56.152H200.293V62.344C200.293 62.632 200.357 62.832 200.485 62.944C200.613 63.056 200.809 63.112 201.073 63.112H201.985V64H200.977ZM198.349 58.528V57.64H201.985V58.528H198.349ZM207.26 64L205.292 57.64H206.396L207.884 62.944L209.396 57.64H210.476L211.988 62.944L213.488 57.64H214.592L212.624 64H211.352L209.936 59.164L208.52 64H207.26ZM215.523 64V57.64H216.531V64H215.523ZM215.499 56.644V55.468H216.555V56.644H215.499ZM220.12 64C219.544 64 219.116 63.868 218.836 63.604C218.564 63.34 218.428 62.928 218.428 62.368V56.152H219.436V62.344C219.436 62.632 219.5 62.832 219.628 62.944C219.756 63.056 219.952 63.112 220.216 63.112H221.128V64H220.12ZM217.492 58.528V57.64H221.128V58.528H217.492ZM222.241 64V55.48H223.249V59.044L223.129 59.02C223.209 58.668 223.345 58.38 223.537 58.156C223.729 57.932 223.965 57.768 224.245 57.664C224.525 57.552 224.833 57.496 225.169 57.496C225.625 57.496 226.009 57.6 226.321 57.808C226.641 58.008 226.881 58.292 227.041 58.66C227.209 59.02 227.293 59.436 227.293 59.908V64H226.285V60.196C226.285 59.58 226.173 59.124 225.949 58.828C225.733 58.532 225.401 58.384 224.953 58.384C224.441 58.384 224.029 58.54 223.717 58.852C223.405 59.164 223.249 59.616 223.249 60.208V64H222.241ZM234.338 64.144C233.738 64.144 233.218 64.008 232.778 63.736C232.346 63.464 232.01 63.08 231.77 62.584C231.538 62.08 231.422 61.492 231.422 60.82C231.422 60.148 231.538 59.564 231.77 59.068C232.01 58.572 232.342 58.188 232.766 57.916C233.198 57.636 233.706 57.496 234.29 57.496C234.842 57.496 235.33 57.628 235.754 57.892C236.178 58.148 236.506 58.524 236.738 59.02C236.978 59.516 237.098 60.12 237.098 60.832V61.132H232.478C232.518 61.812 232.698 62.324 233.018 62.668C233.346 63.012 233.786 63.184 234.338 63.184C234.754 63.184 235.094 63.088 235.358 62.896C235.63 62.696 235.818 62.436 235.922 62.116L237.002 62.2C236.834 62.768 236.514 63.236 236.042 63.604C235.578 63.964 235.01 64.144 234.338 64.144ZM232.478 60.244H235.994C235.946 59.628 235.766 59.176 235.454 58.888C235.15 58.6 234.762 58.456 234.29 58.456C233.802 58.456 233.398 58.608 233.078 58.912C232.766 59.208 232.566 59.652 232.478 60.244ZM237.407 64L239.747 60.736L237.527 57.64H238.703L240.371 60.04L241.991 57.64H243.191L240.995 60.76L243.299 64H242.123L240.371 61.432L238.607 64H237.407ZM246.337 64C245.761 64 245.333 63.868 245.053 63.604C244.781 63.34 244.645 62.928 244.645 62.368V56.152H245.653V62.344C245.653 62.632 245.717 62.832 245.845 62.944C245.973 63.056 246.169 63.112 246.433 63.112H247.345V64H246.337ZM243.709 58.528V57.64H247.345V58.528H243.709ZM248.587 64V57.64H249.475L249.523 59.248L249.427 59.212C249.507 58.668 249.679 58.272 249.943 58.024C250.215 57.768 250.575 57.64 251.023 57.64H251.647V58.6H251.035C250.715 58.6 250.447 58.66 250.231 58.78C250.023 58.892 249.863 59.064 249.751 59.296C249.647 59.52 249.595 59.808 249.595 60.16V64H248.587ZM254.19 64.144C253.534 64.144 253.01 63.992 252.618 63.688C252.234 63.384 252.042 62.96 252.042 62.416C252.042 61.872 252.202 61.444 252.522 61.132C252.842 60.82 253.35 60.6 254.046 60.472L256.302 60.052C256.302 59.516 256.174 59.116 255.918 58.852C255.67 58.588 255.294 58.456 254.79 58.456C254.35 58.456 254.002 58.556 253.746 58.756C253.49 58.948 253.314 59.228 253.218 59.596L252.15 59.512C252.27 58.912 252.558 58.428 253.014 58.06C253.478 57.684 254.07 57.496 254.79 57.496C255.606 57.496 256.23 57.728 256.662 58.192C257.094 58.648 257.31 59.28 257.31 60.088V62.716C257.31 62.86 257.334 62.964 257.382 63.028C257.438 63.084 257.526 63.112 257.646 63.112H257.898V64C257.866 64.008 257.814 64.012 257.742 64.012C257.67 64.02 257.594 64.024 257.514 64.024C257.226 64.024 256.99 63.98 256.806 63.892C256.63 63.796 256.502 63.652 256.422 63.46C256.342 63.26 256.302 63 256.302 62.68L256.422 62.704C256.366 62.976 256.23 63.224 256.014 63.448C255.798 63.664 255.53 63.836 255.21 63.964C254.89 64.084 254.55 64.144 254.19 64.144ZM254.286 63.256C254.71 63.256 255.07 63.176 255.366 63.016C255.67 62.848 255.902 62.624 256.062 62.344C256.222 62.056 256.302 61.736 256.302 61.384V60.928L254.238 61.312C253.806 61.392 253.506 61.516 253.338 61.684C253.178 61.844 253.098 62.056 253.098 62.32C253.098 62.616 253.202 62.848 253.41 63.016C253.626 63.176 253.918 63.256 254.286 63.256ZM28.444 82.144C27.852 82.144 27.336 82.008 26.896 81.736C26.464 81.464 26.128 81.08 25.888 80.584C25.648 80.08 25.528 79.492 25.528 78.82C25.528 78.148 25.648 77.564 25.888 77.068C26.128 76.572 26.464 76.188 26.896 75.916C27.336 75.636 27.852 75.496 28.444 75.496C28.932 75.496 29.364 75.584 29.74 75.76C30.124 75.928 30.436 76.176 30.676 76.504C30.916 76.832 31.072 77.232 31.144 77.704L30.088 77.776C30.016 77.352 29.832 77.028 29.536 76.804C29.24 76.572 28.876 76.456 28.444 76.456C27.86 76.456 27.404 76.668 27.076 77.092C26.748 77.508 26.584 78.084 26.584 78.82C26.584 79.556 26.748 80.136 27.076 80.56C27.404 80.976 27.86 81.184 28.444 81.184C28.876 81.184 29.24 81.064 29.536 80.824C29.832 80.584 30.016 80.224 30.088 79.744L31.144 79.816C31.072 80.288 30.916 80.7 30.676 81.052C30.436 81.396 30.124 81.664 29.74 81.856C29.364 82.048 28.932 82.144 28.444 82.144ZM34.0937 82.144C33.4377 82.144 32.9137 81.992 32.5217 81.688C32.1377 81.384 31.9457 80.96 31.9457 80.416C31.9457 79.872 32.1057 79.444 32.4257 79.132C32.7457 78.82 33.2537 78.6 33.9497 78.472L36.2057 78.052C36.2057 77.516 36.0777 77.116 35.8217 76.852C35.5737 76.588 35.1977 76.456 34.6937 76.456C34.2537 76.456 33.9057 76.556 33.6497 76.756C33.3937 76.948 33.2177 77.228 33.1217 77.596L32.0537 77.512C32.1737 76.912 32.4617 76.428 32.9177 76.06C33.3817 75.684 33.9737 75.496 34.6937 75.496C35.5097 75.496 36.1337 75.728 36.5657 76.192C36.9977 76.648 37.2137 77.28 37.2137 78.088V80.716C37.2137 80.86 37.2377 80.964 37.2857 81.028C37.3417 81.084 37.4297 81.112 37.5497 81.112H37.8017V82C37.7697 82.008 37.7177 82.012 37.6457 82.012C37.5737 82.02 37.4977 82.024 37.4177 82.024C37.1297 82.024 36.8937 81.98 36.7097 81.892C36.5337 81.796 36.4057 81.652 36.3257 81.46C36.2457 81.26 36.2057 81 36.2057 80.68L36.3257 80.704C36.2697 80.976 36.1337 81.224 35.9177 81.448C35.7017 81.664 35.4337 81.836 35.1137 81.964C34.7937 82.084 34.4537 82.144 34.0937 82.144ZM34.1897 81.256C34.6137 81.256 34.9737 81.176 35.2697 81.016C35.5737 80.848 35.8057 80.624 35.9657 80.344C36.1257 80.056 36.2057 79.736 36.2057 79.384V78.928L34.1417 79.312C33.7097 79.392 33.4097 79.516 33.2417 79.684C33.0817 79.844 33.0017 80.056 33.0017 80.32C33.0017 80.616 33.1057 80.848 33.3137 81.016C33.5297 81.176 33.8217 81.256 34.1897 81.256ZM41.0527 82.144C40.4847 82.144 40.0007 82.052 39.6007 81.868C39.2087 81.684 38.9007 81.432 38.6767 81.112C38.4607 80.784 38.3367 80.412 38.3047 79.996L39.3607 79.924C39.4247 80.308 39.5887 80.616 39.8527 80.848C40.1167 81.072 40.5167 81.184 41.0527 81.184C41.4847 81.184 41.8287 81.116 42.0847 80.98C42.3487 80.836 42.4807 80.608 42.4807 80.296C42.4807 80.128 42.4407 79.988 42.3607 79.876C42.2807 79.764 42.1247 79.668 41.8927 79.588C41.6607 79.5 41.3167 79.416 40.8607 79.336C40.2527 79.224 39.7727 79.088 39.4207 78.928C39.0767 78.76 38.8287 78.556 38.6767 78.316C38.5327 78.068 38.4607 77.776 38.4607 77.44C38.4607 76.872 38.6687 76.408 39.0847 76.048C39.5007 75.68 40.0927 75.496 40.8607 75.496C41.3807 75.496 41.8167 75.592 42.1687 75.784C42.5287 75.968 42.8087 76.216 43.0087 76.528C43.2167 76.832 43.3527 77.168 43.4167 77.536L42.3607 77.608C42.3127 77.384 42.2247 77.188 42.0967 77.02C41.9687 76.844 41.8007 76.708 41.5927 76.612C41.3847 76.508 41.1367 76.456 40.8487 76.456C40.3927 76.456 40.0567 76.544 39.8407 76.72C39.6247 76.896 39.5167 77.12 39.5167 77.392C39.5167 77.6 39.5647 77.772 39.6607 77.908C39.7647 78.036 39.9287 78.144 40.1527 78.232C40.3767 78.312 40.6767 78.384 41.0527 78.448C41.7007 78.56 42.2047 78.696 42.5647 78.856C42.9247 79.016 43.1767 79.212 43.3207 79.444C43.4647 79.676 43.5367 79.96 43.5367 80.296C43.5367 80.688 43.4247 81.024 43.2007 81.304C42.9847 81.576 42.6887 81.784 42.3127 81.928C41.9447 82.072 41.5247 82.144 41.0527 82.144ZM44.7325 82V73.48H45.7405V77.044L45.6205 77.02C45.7005 76.668 45.8365 76.38 46.0285 76.156C46.2205 75.932 46.4565 75.768 46.7365 75.664C47.0165 75.552 47.3245 75.496 47.6605 75.496C48.1165 75.496 48.5005 75.6 48.8125 75.808C49.1325 76.008 49.3725 76.292 49.5325 76.66C49.7005 77.02 49.7845 77.436 49.7845 77.908V82H48.7765V78.196C48.7765 77.58 48.6645 77.124 48.4405 76.828C48.2245 76.532 47.8925 76.384 47.4445 76.384C46.9325 76.384 46.5205 76.54 46.2085 76.852C45.8965 77.164 45.7405 77.616 45.7405 78.208V82H44.7325ZM54.3452 82V75.64H55.3532V82H54.3452ZM54.3212 74.644V73.468H55.3772V74.644H54.3212ZM57.212 82V75.64H58.136L58.172 77.26L58.052 77.152C58.132 76.776 58.272 76.468 58.472 76.228C58.672 75.98 58.912 75.796 59.192 75.676C59.48 75.556 59.788 75.496 60.116 75.496C60.604 75.496 61.004 75.604 61.316 75.82C61.636 76.036 61.872 76.328 62.024 76.696C62.184 77.056 62.264 77.46 62.264 77.908V82H61.256V78.196C61.256 77.804 61.208 77.476 61.112 77.212C61.024 76.94 60.88 76.736 60.68 76.6C60.48 76.456 60.22 76.384 59.9 76.384C59.412 76.384 59.008 76.54 58.688 76.852C58.376 77.156 58.22 77.604 58.22 78.196V82H57.212ZM67.1007 83.8V82.912H67.8327C68.0567 82.912 68.2207 82.876 68.3247 82.804C68.4367 82.74 68.5207 82.632 68.5767 82.48L68.8047 81.88H68.4567L66.1287 75.64H67.2327L69.1287 80.944L70.9407 75.64H72.0447L69.4647 82.804C69.3447 83.148 69.1647 83.4 68.9247 83.56C68.6847 83.72 68.3527 83.8 67.9287 83.8H67.1007ZM75.2576 82.144C74.6736 82.144 74.1616 82.008 73.7216 81.736C73.2816 81.464 72.9416 81.08 72.7016 80.584C72.4616 80.08 72.3416 79.492 72.3416 78.82C72.3416 78.14 72.4616 77.552 72.7016 77.056C72.9416 76.56 73.2816 76.176 73.7216 75.904C74.1616 75.632 74.6736 75.496 75.2576 75.496C75.8416 75.496 76.3496 75.632 76.7816 75.904C77.2216 76.176 77.5616 76.56 77.8016 77.056C78.0416 77.552 78.1616 78.14 78.1616 78.82C78.1616 79.492 78.0416 80.08 77.8016 80.584C77.5616 81.08 77.2216 81.464 76.7816 81.736C76.3496 82.008 75.8416 82.144 75.2576 82.144ZM75.2576 81.184C75.8416 81.184 76.2936 80.976 76.6136 80.56C76.9416 80.136 77.1056 79.556 77.1056 78.82C77.1056 78.084 76.9416 77.508 76.6136 77.092C76.2936 76.668 75.8416 76.456 75.2576 76.456C74.6736 76.456 74.2176 76.668 73.8896 77.092C73.5616 77.508 73.3976 78.084 73.3976 78.82C73.3976 79.556 73.5616 80.136 73.8896 80.56C74.2176 80.976 74.6736 81.184 75.2576 81.184ZM81.4433 82.144C80.8113 82.144 80.3033 81.932 79.9193 81.508C79.5433 81.076 79.3553 80.484 79.3553 79.732V75.64H80.3633V79.456C80.3633 80.072 80.4713 80.528 80.6873 80.824C80.9113 81.112 81.2513 81.256 81.7073 81.256C82.2113 81.256 82.6073 81.096 82.8953 80.776C83.1833 80.448 83.3273 80 83.3273 79.432V75.64H84.3353V82H83.3753V80.428L83.5313 80.512C83.4033 81.032 83.1593 81.436 82.7993 81.724C82.4393 82.004 81.9873 82.144 81.4433 82.144ZM86.0777 82V75.64H86.9657L87.0137 77.248L86.9177 77.212C86.9977 76.668 87.1697 76.272 87.4337 76.024C87.7057 75.768 88.0657 75.64 88.5137 75.64H89.1377V76.6H88.5257C88.2057 76.6 87.9377 76.66 87.7217 76.78C87.5137 76.892 87.3537 77.064 87.2417 77.296C87.1377 77.52 87.0857 77.808 87.0857 78.16V82H86.0777ZM94.5365 82L92.5685 75.64H93.6725L95.1605 80.944L96.6725 75.64H97.7525L99.2645 80.944L100.765 75.64H101.869L99.9005 82H98.6285L97.2125 77.164L95.7965 82H94.5365ZM104.363 82.144C103.707 82.144 103.183 81.992 102.791 81.688C102.407 81.384 102.215 80.96 102.215 80.416C102.215 79.872 102.375 79.444 102.695 79.132C103.015 78.82 103.523 78.6 104.219 78.472L106.475 78.052C106.475 77.516 106.347 77.116 106.091 76.852C105.843 76.588 105.467 76.456 104.963 76.456C104.523 76.456 104.175 76.556 103.919 76.756C103.663 76.948 103.487 77.228 103.391 77.596L102.323 77.512C102.443 76.912 102.731 76.428 103.187 76.06C103.651 75.684 104.243 75.496 104.963 75.496C105.779 75.496 106.403 75.728 106.835 76.192C107.267 76.648 107.483 77.28 107.483 78.088V80.716C107.483 80.86 107.507 80.964 107.555 81.028C107.611 81.084 107.699 81.112 107.819 81.112H108.071V82C108.039 82.008 107.987 82.012 107.915 82.012C107.843 82.02 107.767 82.024 107.687 82.024C107.399 82.024 107.163 81.98 106.979 81.892C106.803 81.796 106.675 81.652 106.595 81.46C106.515 81.26 106.475 81 106.475 80.68L106.595 80.704C106.539 80.976 106.403 81.224 106.187 81.448C105.971 81.664 105.703 81.836 105.383 81.964C105.063 82.084 104.723 82.144 104.363 82.144ZM104.459 81.256C104.883 81.256 105.243 81.176 105.539 81.016C105.843 80.848 106.075 80.624 106.235 80.344C106.395 80.056 106.475 79.736 106.475 79.384V78.928L104.411 79.312C103.979 79.392 103.679 79.516 103.511 79.684C103.351 79.844 103.271 80.056 103.271 80.32C103.271 80.616 103.375 80.848 103.583 81.016C103.799 81.176 104.091 81.256 104.459 81.256ZM110.207 82C109.839 82 109.539 81.904 109.307 81.712C109.075 81.52 108.959 81.216 108.959 80.8V73.48H109.967V80.716C109.967 80.844 109.999 80.944 110.063 81.016C110.135 81.08 110.235 81.112 110.363 81.112H110.915V82H110.207ZM113.109 82C112.741 82 112.441 81.904 112.209 81.712C111.977 81.52 111.861 81.216 111.861 80.8V73.48H112.869V80.716C112.869 80.844 112.901 80.944 112.965 81.016C113.037 81.08 113.137 81.112 113.265 81.112H113.817V82H113.109ZM117.294 82.144C116.694 82.144 116.174 82.008 115.734 81.736C115.302 81.464 114.966 81.08 114.726 80.584C114.494 80.08 114.378 79.492 114.378 78.82C114.378 78.148 114.494 77.564 114.726 77.068C114.966 76.572 115.298 76.188 115.722 75.916C116.154 75.636 116.662 75.496 117.246 75.496C117.798 75.496 118.286 75.628 118.71 75.892C119.134 76.148 119.462 76.524 119.694 77.02C119.934 77.516 120.054 78.12 120.054 78.832V79.132H115.434C115.474 79.812 115.654 80.324 115.974 80.668C116.302 81.012 116.742 81.184 117.294 81.184C117.71 81.184 118.05 81.088 118.314 80.896C118.586 80.696 118.774 80.436 118.878 80.116L119.958 80.2C119.79 80.768 119.47 81.236 118.998 81.604C118.534 81.964 117.966 82.144 117.294 82.144ZM115.434 78.244H118.95C118.902 77.628 118.722 77.176 118.41 76.888C118.106 76.6 117.718 76.456 117.246 76.456C116.758 76.456 116.354 76.608 116.034 76.912C115.722 77.208 115.522 77.652 115.434 78.244ZM123.321 82C122.745 82 122.317 81.868 122.037 81.604C121.765 81.34 121.629 80.928 121.629 80.368V74.152H122.637V80.344C122.637 80.632 122.701 80.832 122.829 80.944C122.957 81.056 123.153 81.112 123.417 81.112H124.329V82H123.321ZM120.693 76.528V75.64H124.329V76.528H120.693ZM125.549 79.54C125.525 79.26 125.497 78.924 125.465 78.532C125.441 78.14 125.417 77.74 125.393 77.332C125.369 76.924 125.357 76.56 125.357 76.24V73.48H126.389V76.24C126.389 76.56 126.377 76.924 126.353 77.332C126.337 77.74 126.313 78.14 126.281 78.532C126.257 78.924 126.233 79.26 126.209 79.54H125.549ZM125.153 82V80.644H126.509V82H125.153Z" fill="white"/>
<rect x="25" y="105" width="101" height="38" rx="19" fill="white"/>
<path d="M41.032 128V119.48H42.328V123.584L41.704 123.128H46.888L46.264 123.584V119.48H47.56V128H46.264V123.848L46.888 124.304H41.704L42.328 123.848V128H41.032ZM51.8207 128.144C51.2127 128.144 50.6807 128.008 50.2247 127.736C49.7687 127.464 49.4167 127.076 49.1687 126.572C48.9207 126.068 48.7967 125.48 48.7967 124.808C48.7967 124.128 48.9207 123.54 49.1687 123.044C49.4167 122.548 49.7687 122.164 50.2247 121.892C50.6807 121.612 51.2127 121.472 51.8207 121.472C52.4287 121.472 52.9607 121.612 53.4167 121.892C53.8727 122.164 54.2247 122.548 54.4727 123.044C54.7207 123.54 54.8447 124.128 54.8447 124.808C54.8447 125.48 54.7207 126.068 54.4727 126.572C54.2247 127.076 53.8727 127.464 53.4167 127.736C52.9607 128.008 52.4287 128.144 51.8207 128.144ZM51.8207 127.04C52.3647 127.04 52.7847 126.844 53.0807 126.452C53.3767 126.052 53.5247 125.504 53.5247 124.808C53.5247 124.112 53.3767 123.568 53.0807 123.176C52.7847 122.776 52.3647 122.576 51.8207 122.576C51.2847 122.576 50.8647 122.776 50.5607 123.176C50.2647 123.568 50.1167 124.112 50.1167 124.808C50.1167 125.504 50.2647 126.052 50.5607 126.452C50.8647 126.844 51.2847 127.04 51.8207 127.04ZM57.0589 128L55.1149 121.616H56.4469L57.8149 126.608L59.2189 121.616H60.4189L61.8229 126.608L63.2029 121.616H64.5349L62.5909 128H61.1629L59.8189 123.44L58.4749 128H57.0589ZM68.2581 128V121.616H69.5301V128H68.2581ZM68.2341 120.692V119.42H69.5541V120.692H68.2341ZM73.1628 128C72.5548 128 72.1068 127.86 71.8188 127.58C71.5308 127.3 71.3868 126.864 71.3868 126.272V120.116H72.6588V126.176C72.6588 126.472 72.7228 126.676 72.8508 126.788C72.9788 126.9 73.1748 126.956 73.4388 126.956H74.3508V128H73.1628ZM70.4148 122.66V121.616H74.3508V122.66H70.4148ZM79.5027 128L77.5587 121.616H78.8907L80.2587 126.608L81.6627 121.616H82.8627L84.2667 126.608L85.6467 121.616H86.9787L85.0347 128H83.6067L82.2627 123.44L80.9187 128H79.5027ZM90.2638 128.144C89.6558 128.144 89.1238 128.008 88.6678 127.736C88.2118 127.464 87.8598 127.076 87.6118 126.572C87.3638 126.068 87.2398 125.48 87.2398 124.808C87.2398 124.128 87.3638 123.54 87.6118 123.044C87.8598 122.548 88.2118 122.164 88.6678 121.892C89.1238 121.612 89.6558 121.472 90.2638 121.472C90.8718 121.472 91.4038 121.612 91.8598 121.892C92.3158 122.164 92.6678 122.548 92.9158 123.044C93.1638 123.54 93.2878 124.128 93.2878 124.808C93.2878 125.48 93.1638 126.068 92.9158 126.572C92.6678 127.076 92.3158 127.464 91.8598 127.736C91.4038 128.008 90.8718 128.144 90.2638 128.144ZM90.2638 127.04C90.8078 127.04 91.2278 126.844 91.5238 126.452C91.8198 126.052 91.9678 125.504 91.9678 124.808C91.9678 124.112 91.8198 123.568 91.5238 123.176C91.2278 122.776 90.8078 122.576 90.2638 122.576C89.7278 122.576 89.3078 122.776 89.0038 123.176C88.7078 123.568 88.5598 124.112 88.5598 124.808C88.5598 125.504 88.7078 126.052 89.0038 126.452C89.3078 126.844 89.7278 127.04 90.2638 127.04ZM94.3933 128V121.616H95.5573L95.6053 123.308L95.4973 123.272C95.5853 122.696 95.7613 122.276 96.0253 122.012C96.2973 121.748 96.6613 121.616 97.1173 121.616H97.7293V122.756H97.1173C96.7973 122.756 96.5293 122.808 96.3133 122.912C96.0973 123.016 95.9333 123.176 95.8213 123.392C95.7173 123.608 95.6653 123.888 95.6653 124.232V128H94.3933ZM98.5961 128V119.48H99.8681V124.772L102.736 121.616H104.344L101.848 124.304L104.44 128H102.976L100.996 125.096L99.8681 126.296V128H98.5961ZM107.509 128.144C106.909 128.144 106.401 128.052 105.985 127.868C105.577 127.684 105.261 127.432 105.037 127.112C104.813 126.784 104.685 126.408 104.653 125.984L105.961 125.924C106.025 126.276 106.177 126.556 106.417 126.764C106.657 126.972 107.021 127.076 107.509 127.076C107.909 127.076 108.225 127.012 108.457 126.884C108.689 126.756 108.805 126.552 108.805 126.272C108.805 126.12 108.765 125.992 108.685 125.888C108.613 125.776 108.469 125.684 108.253 125.612C108.037 125.532 107.717 125.456 107.293 125.384C106.661 125.264 106.165 125.124 105.805 124.964C105.445 124.804 105.189 124.6 105.037 124.352C104.885 124.104 104.809 123.804 104.809 123.452C104.809 122.868 105.025 122.392 105.457 122.024C105.897 121.656 106.529 121.472 107.353 121.472C107.905 121.472 108.369 121.568 108.745 121.76C109.121 121.944 109.413 122.196 109.621 122.516C109.837 122.828 109.973 123.18 110.029 123.572L108.721 123.644C108.681 123.42 108.601 123.228 108.481 123.068C108.369 122.9 108.217 122.772 108.025 122.684C107.833 122.588 107.605 122.54 107.341 122.54C106.933 122.54 106.629 122.62 106.429 122.78C106.229 122.94 106.129 123.148 106.129 123.404C106.129 123.596 106.173 123.752 106.261 123.872C106.357 123.992 106.509 124.092 106.717 124.172C106.925 124.244 107.201 124.308 107.545 124.364C108.209 124.476 108.729 124.616 109.105 124.784C109.481 124.944 109.745 125.144 109.897 125.384C110.049 125.624 110.125 125.916 110.125 126.26C110.125 126.66 110.013 127 109.789 127.28C109.565 127.56 109.257 127.776 108.865 127.928C108.473 128.072 108.021 128.144 107.509 128.144Z" fill="black"/>
<circle cx="369" cy="19" r="9" fill="#313030" fill-opacity="0.2"/>
<path d="M361.9 22.253C361.303 22.5269 361.034 23.2391 361.384 23.7955C362.114 24.9557 363.103 25.9383 364.28 26.6629C365.795 27.5965 367.553 28.0597 369.332 27.994C371.111 27.9282 372.831 27.3365 374.273 26.2936C375.716 25.2507 376.816 23.8035 377.436 22.1349C378.056 20.4663 378.168 18.6514 377.756 16.9196C377.345 15.1877 376.429 13.6168 375.125 12.4055C373.82 11.1942 372.186 10.3968 370.429 10.1142C369.065 9.89494 367.674 9.99335 366.363 10.395C365.735 10.5877 365.473 11.3027 365.747 11.9005C366.021 12.4984 366.727 12.7493 367.364 12.5868C368.238 12.364 369.152 12.321 370.051 12.4655C371.343 12.6733 372.545 13.2596 373.504 14.1505C374.463 15.0413 375.137 16.1965 375.439 17.4701C375.742 18.7437 375.66 20.0784 375.204 21.3054C374.748 22.5325 373.939 23.5968 372.878 24.3637C371.817 25.1307 370.553 25.5658 369.244 25.6142C367.936 25.6625 366.643 25.3219 365.529 24.6353C364.754 24.158 364.09 23.5284 363.573 22.7892C363.197 22.25 362.498 21.979 361.9 22.253Z" fill="white"/>
</g>
<defs>
<clipPath id="clip0_9_574">
<rect width="390" height="172" rx="10" fill="white"/>
</clipPath>
</defs>
</svg>
