<svg width="28" height="28" viewBox="0 0 28 28" fill="none" xmlns="http://www.w3.org/2000/svg">
<g clip-path="url(#clip0_78_14)">
<path fill-rule="evenodd" clip-rule="evenodd" d="M28 14C28 17.713 26.525 21.274 23.8995 23.8995C21.274 26.525 17.713 28 14 28C10.287 28 6.72601 26.525 4.1005 23.8995C1.475 21.274 0 17.713 0 14C0 10.287 1.475 6.72601 4.1005 4.1005C6.72601 1.475 10.287 0 14 0C17.713 0 21.274 1.475 23.8995 4.1005C26.525 6.72601 28 10.287 28 14ZM15.5 6.5C15.5 6.10218 15.342 5.72064 15.0607 5.43934C14.7794 5.15804 14.3978 5 14 5C13.6022 5 13.2206 5.15804 12.9393 5.43934C12.658 5.72064 12.5 6.10218 12.5 6.5V7.52C11.6193 7.61475 10.8011 8.01966 10.1915 8.66232C9.58194 9.30498 9.22083 10.1435 9.17274 11.0279C9.12464 11.9124 9.3927 12.7851 9.92897 13.4901C10.4653 14.1951 11.2348 14.6863 12.1 14.876L15.048 15.522C15.2901 15.5736 15.5044 15.7132 15.6496 15.9137C15.7947 16.1143 15.8603 16.3615 15.8337 16.6076C15.807 16.8537 15.6901 17.0812 15.5054 17.246C15.3208 17.4109 15.0815 17.5014 14.834 17.5H13.166C12.9594 17.4999 12.758 17.4358 12.5893 17.3165C12.4206 17.1973 12.293 17.0287 12.224 16.834C12.0914 16.4587 11.8151 16.1515 11.456 15.9799C11.0969 15.8083 10.6843 15.7864 10.309 15.919C9.93372 16.0516 9.62649 16.3279 9.45489 16.687C9.28329 17.0461 9.26139 17.4587 9.394 17.834C9.872 19.182 11.054 20.202 12.5 20.444V21.5C12.5 21.8978 12.658 22.2794 12.9393 22.5607C13.2206 22.842 13.6022 23 14 23C14.3978 23 14.7794 22.842 15.0607 22.5607C15.342 22.2794 15.5 21.8978 15.5 21.5V20.444C16.4154 20.2883 17.2482 19.8191 17.8557 19.1167C18.4631 18.4144 18.8075 17.5228 18.8297 16.5945C18.8519 15.6661 18.5506 14.759 17.9775 14.0284C17.4043 13.2979 16.5949 12.7894 15.688 12.59L12.742 11.946C12.5668 11.9064 12.4122 11.8038 12.3077 11.6577C12.2033 11.5115 12.1562 11.3321 12.1755 11.1535C12.1947 10.9749 12.279 10.8096 12.4122 10.6891C12.5455 10.5686 12.7184 10.5013 12.898 10.5H14.834C15.0406 10.5001 15.242 10.5642 15.4107 10.6835C15.5794 10.8027 15.707 10.9713 15.776 11.166C15.8417 11.3518 15.9433 11.5229 16.0751 11.6694C16.2068 11.816 16.3662 11.9351 16.544 12.0201C16.7218 12.1051 16.9146 12.1542 17.1114 12.1646C17.3082 12.1751 17.5052 12.1467 17.691 12.081C17.8768 12.0153 18.0479 11.9137 18.1944 11.7819C18.341 11.6502 18.4601 11.4908 18.5451 11.313C18.6301 11.1352 18.6792 10.9424 18.6896 10.7456C18.7001 10.5488 18.6717 10.3518 18.606 10.166C18.368 9.49352 17.9546 8.89692 17.4084 8.438C16.8623 7.97909 16.2034 7.67457 15.5 7.556V6.5Z" fill="black"/>
</g>
<defs>
<clipPath id="clip0_78_14">
<rect width="28" height="28" fill="white"/>
</clipPath>
</defs>
</svg>
