<svg width="23" height="24" viewBox="0 0 23 24" fill="none" xmlns="http://www.w3.org/2000/svg">
<path d="M18.6875 14.4009C18.6875 18.7852 15.0578 22.3107 10.6734 22.0491C6.16758 21.7803 3.08342 17.4469 3.66417 12.9174C4.01564 10.1624 5.30724 7.79986 6.71311 5.96704C6.95749 5.6472 7.20833 8.22104 7.45917 7.93786C7.71074 7.64676 10.0424 3.6117 10.8531 2.19432C10.888 2.13181 10.9359 2.07753 10.9936 2.03517C11.0513 1.99281 11.1175 1.96337 11.1875 1.94885C11.2576 1.93433 11.33 1.93506 11.3998 1.951C11.4696 1.96694 11.5351 1.99771 11.592 2.04123C13.2207 3.27029 18.6875 7.88683 18.6875 14.4009Z" fill="#FF6723"/>
<path d="M16.5313 16.2054C16.5313 19.1106 14.002 21.4458 10.9257 21.3402C7.6051 21.228 5.3281 18.1892 5.81542 15.059C6.51907 10.5711 11.1263 7.6875 11.1263 7.6875C11.1263 7.6875 16.5313 11.0707 16.5313 16.2054Z" fill="#FFB02E"/>
</svg>
