<svg width="118" height="126" viewBox="0 0 118 126" fill="none" xmlns="http://www.w3.org/2000/svg">
<path d="M85.7312 81.4313V166.625C85.7312 166.625 120.937 141.9 145.662 134.644C145.662 134.644 146.737 81.9688 162.056 55.6313L85.7312 81.4313Z" fill="#076170"/>
<path d="M107.769 153.725C107.769 153.725 109.113 78.2063 111.8 74.4438C114.488 70.4126 137.6 66.3813 137.6 66.3813C137.6 66.3813 128.194 137.063 130.344 141.631C130.613 141.363 120.938 145.394 107.769 153.725Z" fill="#B3690E"/>
<path d="M85.7313 166.625C85.7313 166.625 61.0063 145.663 22.575 134.644C22.575 134.644 25.5312 91.3751 11.5562 58.3188L85.7313 81.4313V166.625Z" fill="#3BAACF"/>
<path d="M38.1625 141.631C38.1625 141.631 60.7375 150.769 62.35 153.725C63.9625 156.681 63.9625 77.6688 63.9625 77.6688C63.9625 77.6688 33.0562 69.0688 30.3687 69.0688C30.3687 69.0688 39.775 101.05 38.1625 141.631Z" fill="#E9C243"/>
<path opacity="0.3" d="M85.7313 81.4313V95.6751L154.8 72.0251C156.681 66.1126 159.1 60.4688 161.788 55.6313L85.7313 81.4313ZM16.3938 73.1001C15.05 67.9938 13.4375 63.1563 11.2875 58.3188L85.4625 81.4313V95.6751L16.3938 73.1001Z" fill="black"/>
<path d="M5.375 50.7939L81.9688 67.7252L166.625 47.3002L83.5813 42.7314L5.375 50.7939Z" fill="#4FC7E8"/>
<path d="M5.375 50.7939L11.5563 67.7252L81.9688 87.6127V67.7252L5.375 50.7939Z" fill="#3BAACF"/>
<path d="M81.9688 87.6126C81.9688 87.6126 145.931 63.9626 161.787 62.8876C161.787 62.8876 162.863 53.4813 166.625 47.5688L81.9688 67.7251V87.6126Z" fill="#076170"/>
<path d="M28.2188 55.9002L43.8062 70.6814L61.0062 62.8877L86 55.3627L117.175 59.1252L133.569 62.3502L146.737 52.1377L28.2188 55.9002Z" fill="#F0AE11"/>
<path d="M61.0062 62.8876L86 55.3626L117.175 59.1251L146.737 52.1376L84.3875 46.2251L28.2188 55.9001L61.0062 62.8876Z" fill="#F0AE11"/>
<path d="M28.2188 55.8999V74.7124L59.6625 83.3124L61.0062 62.8874L28.2188 55.8999Z" fill="#F8D048"/>
<path d="M117.175 59.1252L117.712 77.1314L144.587 69.0689L146.737 52.1377L117.175 59.1252Z" fill="#C47116"/>
<path d="M100.244 46.4937C100.244 46.4937 100.244 27.6812 118.519 11.2875C118.519 11.2875 107.5 15.3188 102.125 14.2438C95.675 13.1688 93.525 5.375 93.525 5.375C93.525 5.375 77.9375 39.2375 82.5062 43.5375C87.075 48.1063 100.244 46.4937 100.244 46.4937Z" fill="#EA9F07"/>
<path d="M76.325 57.5127C76.325 57.5127 65.8437 36.0127 43.5375 24.7252C43.5375 24.7252 61.0062 23.1127 65.0375 20.9627C70.1437 18.5439 73.1 11.8252 73.1 11.8252C73.1 11.8252 92.45 45.6877 90.8375 50.7939C89.225 55.9002 76.325 57.5127 76.325 57.5127Z" fill="#F8D048"/>
<path d="M87.6125 55.0937C87.6125 55.0937 71.2187 61.5437 50.2562 61.5437C6.18127 61.275 1.43051e-05 29.5625 43.5375 32.5187C79.2812 35.2062 87.6125 55.0937 87.6125 55.0937Z" fill="#EA9F07"/>
<path d="M84.6563 54.8251C84.6563 54.8251 104.006 56.4376 122.012 51.8689C159.637 42.1939 145.662 13.7064 110.187 25.8001C81.1625 35.7439 84.6563 54.8251 84.6563 54.8251Z" fill="#F0AE11"/>
<path d="M87.6125 55.0942C87.6125 55.0942 77.4 59.1254 64.2313 59.1254C36.8188 59.1254 32.7875 39.2379 59.9313 41.1192C82.2375 42.7317 87.6125 55.0942 87.6125 55.0942Z" fill="#824000"/>
<path d="M87.6125 55.094C87.6125 55.094 101.05 56.169 113.681 52.944C140.019 46.2252 130.075 26.3377 105.619 34.669C85.1937 41.6565 87.6125 55.094 87.6125 55.094Z" fill="#824000"/>
</svg>
