<svg width="20" height="20" viewBox="0 0 20 20" fill="none" xmlns="http://www.w3.org/2000/svg">
<path d="M19.444 7.47283L17.774 17.4728C17.6613 18.1684 17.3072 18.8021 16.774 19.2628C16.2062 19.7165 15.5008 19.9634 14.774 19.9628H5.16402C4.46134 19.9567 3.78312 19.704 3.24766 19.249C2.71219 18.7939 2.35346 18.1653 2.23402 17.4728L0.564023 7.47283C0.473584 6.89585 0.553519 6.30503 0.794023 5.77283C1.03445 5.24337 1.42356 4.79519 1.91402 4.48283L8.39402 0.482826C8.86746 0.19079 9.41276 0.0361328 9.96902 0.0361328C10.5253 0.0361328 11.0706 0.19079 11.544 0.482826L18.014 4.48283C18.521 4.78283 18.925 5.22983 19.174 5.76283C19.4301 6.29391 19.524 6.88868 19.444 7.47283Z" fill="white"/>
</svg>
