<svg width="17" height="18" viewBox="0 0 17 18" fill="none" xmlns="http://www.w3.org/2000/svg">
<path d="M0.90042 12.253C0.302574 12.5269 0.0335685 13.2391 0.383962 13.7955C1.11445 14.9557 2.1034 15.9383 3.27959 16.6629C4.79514 17.5965 6.5535 18.0597 8.33231 17.994C10.1111 17.9282 11.8305 17.3365 13.273 16.2936C14.7155 15.2507 15.8164 13.8035 16.4364 12.1349C17.0564 10.4663 17.1677 8.65138 16.7562 6.91956C16.3447 5.18775 15.4289 3.61685 14.1246 2.40551C12.8203 1.19417 11.1861 0.396799 9.42868 0.114233C8.06475 -0.105062 6.67412 -0.00664618 5.36329 0.395001C4.73454 0.587659 4.47323 1.30269 4.74714 1.90054C5.02106 2.49838 5.72709 2.74935 6.3643 2.58683C7.23797 2.36401 8.15218 2.321 9.05065 2.46546C10.3431 2.67326 11.5449 3.25964 12.504 4.15045C13.4632 5.04127 14.1367 6.19651 14.4393 7.47008C14.7419 8.74366 14.6601 10.0784 14.2041 11.3054C13.7482 12.5325 12.9386 13.5968 11.8778 14.3637C10.817 15.1307 9.55252 15.5658 8.24438 15.6142C6.93624 15.6625 5.64315 15.3219 4.52862 14.6353C3.75383 14.158 3.08952 13.5284 2.57334 12.7892C2.19686 12.25 1.49827 11.979 0.90042 12.253Z" fill="white"/>
</svg>
