<svg width="16" height="16" viewBox="0 0 16 16" fill="none" xmlns="http://www.w3.org/2000/svg">
<g clip-path="url(#clip0_30_690)">
<path d="M7.05998 4.49013C7.13498 4.15388 7.07748 4.31388 6.59373 3.60638C6.15873 2.97138 6.24873 2.06888 5.73373 1.62013C5.41748 1.34513 5.02123 1.03638 3.54498 1.77888C3.03248 2.03638 2.00873 2.88513 0.848729 3.27388C-0.0850213 3.58638 0.432479 3.96388 0.631229 4.03388C1.33873 4.28263 2.27498 3.74513 2.27498 3.74513C2.27498 3.74513 0.932479 4.62263 1.72123 4.83013C2.36123 4.99888 3.16748 4.23013 3.16748 4.23013C3.16748 4.23013 2.37748 5.06763 3.02373 5.28263C3.46748 5.43013 4.34873 4.58763 4.34873 4.58763C4.34873 4.58763 3.73248 5.44388 4.02998 5.62513C4.48248 5.90013 5.22373 5.19138 5.22373 5.19138C5.22373 5.19138 4.63498 6.05138 4.94248 6.19138C5.40248 6.40138 6.08498 5.81138 6.08498 5.81138C6.08498 5.81138 6.92498 5.09138 7.05998 4.49013Z" fill="#E0E0E0"/>
<path d="M4.46 1.72021C4.46 1.72021 3.655 2.19271 3.36125 2.57271C3.3225 2.62271 3.08125 2.86396 3.29375 3.00271C3.3475 3.03771 3.5075 3.01521 3.6025 2.95771C4.035 2.69521 4.8 2.07271 4.88375 2.10521C4.9675 2.13771 4.2 2.64271 3.9525 3.25396C3.86 3.48396 4.04 3.64896 4.50875 3.37271C5.01875 3.07271 5.4575 2.54396 5.53125 2.54646C5.53125 2.54646 5.32625 2.90396 5.06375 3.18646C4.79625 3.47521 4.6075 3.76896 4.805 3.86146C5.05375 3.97896 5.59125 3.66021 5.59125 3.66021C5.59125 3.66021 5.24875 4.07521 4.805 4.16896C4.64875 4.20271 4.52625 4.18146 4.45125 4.09646C4.3375 3.96646 4.38125 3.76646 4.38125 3.76646C4.145 3.86021 3.7375 4.01271 3.495 3.80771C3.30625 3.64771 3.56375 3.17896 3.56375 3.17896C3.56375 3.17896 3.1075 3.43146 2.8475 3.35521C2.7125 3.31521 2.50625 3.12021 2.8075 2.70646C3.2825 2.06021 4.46 1.72021 4.46 1.72021ZM5.4225 6.26647C5.94375 5.58897 6.465 4.91271 6.98625 4.23521L6.94125 4.04021C6.91875 3.97146 6.71375 3.96271 6.43 4.12646C6.24 4.23646 5.89125 4.63146 5.6675 4.41396C5.5125 4.26396 5.9575 3.72771 5.9575 3.72771C5.89625 3.72896 5.4025 4.05896 5.32375 4.39021C5.25625 4.67146 5.32125 5.00146 5.95625 4.68021C5.975 4.67021 5.995 4.65896 6.01375 4.64771C5.93375 4.77396 5.86125 4.90647 5.8 5.04147C5.6225 5.43147 5.5175 5.84897 5.4225 6.26647Z" fill="#BDBDBD"/>
<path d="M10.1738 1.39111L10.1825 1.39736L10.1738 1.39111Z" fill="url(#paint0_linear_30_690)"/>
<path d="M10.8912 8.85383C9.63499 10.7363 8.57874 12.8101 6.17624 13.4451C6.15124 13.4513 6.12499 13.4438 6.10749 13.4251L2.18249 9.09383C2.06624 8.96508 2.12374 8.76133 2.28874 8.70758C3.90249 8.17758 4.90999 6.91508 5.80749 5.56883C7.04499 3.71508 8.10499 1.67508 10.4312 1.00633C10.52 0.972578 10.6237 0.993828 10.6912 1.06758C11.2125 1.64258 15.1437 5.38508 15.15 5.39258C15.1525 5.39383 11.855 7.40883 10.8912 8.85383Z" fill="#66BB6A"/>
<path d="M7.26374 9.71377C7.17874 9.62877 7.07749 9.58627 6.95999 9.58752C6.84249 9.58877 6.68999 9.63627 6.50124 9.73002C6.24498 9.86627 6.02249 9.93002 5.83624 9.92377C5.64999 9.91627 5.48249 9.83877 5.33499 9.69002C5.18374 9.53877 5.10374 9.37002 5.09624 9.18502C5.08749 9.00002 5.15124 8.82127 5.28749 8.64877L5.04874 8.40877C5.03189 8.39157 5.02246 8.36846 5.02246 8.34439C5.02246 8.32032 5.03189 8.29721 5.04874 8.28002L5.12624 8.20252C5.16124 8.16752 5.21874 8.16752 5.25499 8.20252L5.49499 8.44377C5.67124 8.31002 5.85748 8.25502 6.05248 8.27752C6.22748 8.29877 6.39999 8.38502 6.56874 8.54002C6.60124 8.57002 6.60124 8.62252 6.56999 8.65377L6.42748 8.79627C6.39749 8.82627 6.34874 8.82627 6.31749 8.79752C6.20499 8.70002 6.08873 8.64377 5.96999 8.63127C5.83123 8.61627 5.70874 8.66127 5.60374 8.76627C5.49374 8.87627 5.43749 8.98877 5.43624 9.10252C5.43499 9.21752 5.48499 9.32627 5.58624 9.42752C5.67999 9.52252 5.78624 9.56627 5.90374 9.56127C6.02124 9.55627 6.17249 9.50627 6.35999 9.41127C6.54749 9.31627 6.70624 9.25752 6.84124 9.23377C6.97499 9.21002 7.09749 9.21627 7.20749 9.25127C7.31749 9.28752 7.42124 9.35377 7.51874 9.45127C7.67374 9.60752 7.75249 9.78002 7.75374 9.96877C7.75499 10.1575 7.67999 10.345 7.52749 10.5313L7.72749 10.7313C7.76249 10.7663 7.76249 10.8238 7.72749 10.86L7.65124 10.9363C7.61624 10.9713 7.55874 10.9713 7.52249 10.9363L7.32249 10.7363C7.13499 10.8913 6.93874 10.965 6.73499 10.955C6.55374 10.9463 6.37999 10.8688 6.21499 10.7225C6.20707 10.7153 6.20071 10.7066 6.19633 10.6969C6.19194 10.6871 6.18962 10.6766 6.1895 10.6659C6.18939 10.6552 6.19148 10.6446 6.19565 10.6348C6.19982 10.625 6.20598 10.6161 6.21374 10.6088L6.35874 10.465C6.38749 10.4363 6.43374 10.4338 6.46499 10.46C6.57624 10.5563 6.69124 10.605 6.80999 10.6075C6.94624 10.61 7.07624 10.5488 7.19999 10.425C7.32123 10.305 7.38749 10.18 7.39874 10.0538C7.40749 9.92752 7.36374 9.81377 7.26374 9.71377Z" fill="white"/>
<path d="M7.58375 10.5923L7.32125 10.7386L5.2925 8.65607L5.22375 8.58607L5.495 8.44482L7.52375 10.5323L7.58375 10.5923Z" fill="white"/>
<path opacity="0.5" d="M9.48499 7.49611C10.4805 7.49611 11.2875 6.68911 11.2875 5.69361C11.2875 4.69812 10.4805 3.89111 9.48499 3.89111C8.4895 3.89111 7.6825 4.69812 7.6825 5.69361C7.6825 6.68911 8.4895 7.49611 9.48499 7.49611Z" fill="#2E7D32"/>
<path d="M11.52 9.80252C10.8762 10.7675 9.94873 12.6088 8.67123 13.6213C7.49873 14.5513 6.01998 15.01 6.01998 15.01L1.95123 10.245L2.11998 8.93752L6.10998 13.4263C6.12623 13.4438 6.15123 13.4525 6.17498 13.4463C8.57873 12.8113 9.63498 10.7375 10.8912 8.85502C11.855 7.41002 13.2962 5.87002 15.1512 5.39502C15.2987 5.55752 15.2337 6.92002 15.0725 6.97377C13.4287 7.51877 12.42 8.45127 11.52 9.80252Z" fill="#2E7D32"/>
<path d="M9.85626 10.4398L10.2338 11.8336C10.2338 11.8336 11.3838 10.1511 11.57 9.74355L11.1525 8.4873C10.595 9.18105 9.85626 10.4398 9.85626 10.4398Z" fill="#FFC06C"/>
<path d="M9.75877 2.12648C9.85502 2.26523 10.0238 2.40898 10.295 2.49273C10.3913 2.52273 10.4925 2.53773 10.5938 2.53773C10.8088 2.53773 10.9888 2.47148 11.11 2.41023C11.4138 2.71523 11.7938 3.08648 12.1613 3.44648C12.5213 3.79898 12.8913 4.16148 13.1925 4.46273C13.095 4.61148 13.0175 4.83648 13.05 5.14023C13.065 5.28023 13.1638 5.42273 13.2688 5.53898C12.6038 5.96648 11.3275 6.91648 10.0188 8.59149C9.74252 8.94524 9.47252 9.33774 9.21252 9.71649C8.56502 10.659 7.89627 11.6315 7.00627 12.2265C6.90127 12.0552 6.70752 11.8477 6.36127 11.7615C6.27752 11.7402 6.19502 11.7302 6.11627 11.7302C5.89377 11.7302 5.71877 11.8127 5.59377 11.9102L3.70627 9.74023C3.86502 9.61648 4.01377 9.40523 4.02877 9.07898C4.03627 8.92648 3.95502 8.78773 3.86252 8.68273C4.78252 8.00148 5.75377 6.91523 6.27627 6.13523C6.35252 6.02148 6.43127 5.90273 6.51252 5.78023C7.33002 4.54648 8.43752 2.88148 9.75877 2.12648ZM9.85752 1.83398C8.26752 2.62148 7.00127 4.67273 6.10002 6.01523C5.51002 6.89398 4.44377 8.04023 3.52502 8.65898C3.52502 8.65898 3.82627 8.87273 3.81627 9.06648C3.79127 9.58648 3.36877 9.67398 3.36877 9.67398L5.58752 12.224C5.58752 12.224 5.75002 11.939 6.11502 11.939C6.17377 11.939 6.23877 11.9465 6.30877 11.964C6.81127 12.089 6.91252 12.5315 6.91252 12.5315C8.33002 11.7065 9.18627 9.99773 10.1838 8.71898C11.5375 6.98523 12.8838 6.00273 13.6125 5.57148C13.6125 5.57148 13.2775 5.30023 13.2588 5.11523C13.2075 4.62898 13.4825 4.45398 13.4825 4.45398C12.8388 3.80273 11.7813 2.78898 11.1413 2.14023C11.1413 2.14023 10.9088 2.32273 10.5925 2.32273C10.5175 2.32273 10.4375 2.31273 10.3563 2.28773C9.89627 2.14898 9.85752 1.83398 9.85752 1.83398Z" fill="#2E7D32"/>
<path d="M6.72748 4.16504L5.51123 6.00379L9.85623 10.44C9.85623 10.44 10.5662 9.31754 11.1512 8.48754L6.72748 4.16504Z" fill="#FFECB3"/>
<path opacity="0.68" d="M11.3275 9.01514C11.3275 9.01514 10.47 9.45139 10.2362 10.7814C10.1475 11.2839 10.235 11.8339 10.235 11.8339L10.9425 10.7451L11.4487 9.23139L11.3275 9.01514Z" fill="#D69136"/>
<path d="M11.0813 9.3037C11.33 9.06495 11.4125 8.9912 12.19 8.93495C12.9575 8.8787 13.31 8.54245 14.28 8.7437C14.69 8.8287 15.34 9.2037 15.175 10.6987C15.1125 11.2687 15.1275 12.5862 15.3963 13.7799C15.6125 14.7399 15.0213 14.4937 14.8588 14.3599C14.2788 13.8837 14.2538 12.805 14.2538 12.805C14.2538 12.805 14.1988 14.4075 13.6125 13.8412C13.1375 13.3812 13.3763 12.2937 13.3763 12.2937C13.3763 12.2937 13.0688 13.4037 12.55 12.9612C12.1938 12.6575 12.4588 11.4674 12.4588 11.4674C12.4588 11.4674 12.045 12.4387 11.7375 12.2775C11.2675 12.0325 11.49 11.0312 11.49 11.0312C11.49 11.0312 11.06 11.9799 10.78 11.7887C10.3625 11.5037 10.5138 10.6149 10.5138 10.6149C10.5138 10.6149 10.6363 9.72995 11.0813 9.3037Z" fill="#E0E0E0"/>
<path d="M14.7925 9.91006C14.7925 9.91006 14.8525 10.6826 14.7988 11.1438C14.765 11.4301 14.75 11.6926 14.4875 11.6538C14.4238 11.6438 14.275 11.5201 14.2488 11.0438C14.2213 10.5388 14.3263 9.87131 14.2525 9.82131C14.1788 9.77006 14.175 10.6463 13.81 11.1951C13.6725 11.4013 13.4413 11.4238 13.405 10.8801C13.365 10.2888 13.6713 9.58881 13.6275 9.52881C13.6275 9.52881 13.3688 9.84756 13.2188 10.2988C13.0688 10.7501 13.0025 10.9626 12.8263 10.8326C12.51 10.6001 12.9738 9.67381 12.9738 9.67381C12.9738 9.67381 12.6338 9.97756 12.4863 10.4026C12.3925 10.6726 12.4438 11.1163 12.6838 11.2288C12.9663 11.3613 13.1313 11.1251 13.1313 11.1251C13.1313 11.1251 13.1913 11.8813 13.56 11.8651C13.9138 11.8488 14.0038 11.4501 14.0038 11.4501C14.0038 11.4501 13.9888 11.8351 14.3463 12.0988C14.52 12.2276 14.9238 12.2488 14.9738 11.7388C15.055 10.9113 14.7925 9.91006 14.7925 9.91006ZM11.8838 9.63881C11.8075 9.62006 11.6975 9.96381 11.56 10.1576C11.5075 10.2301 11.395 10.3788 11.2225 10.3663C11.05 10.3538 11.1863 9.84631 11.1463 9.87381C11.1063 9.90131 10.945 10.1726 11.0088 10.4876C11.0263 10.5751 11.115 10.6788 11.2025 10.6926C11.53 10.7451 11.6738 10.3426 11.6738 10.3426C11.6738 10.3426 11.625 10.8238 11.9488 10.8738C12.34 10.9338 12.42 10.3176 12.385 10.2951C12.35 10.2726 12.2238 10.6826 11.945 10.5076C11.7163 10.3626 11.96 9.65881 11.8838 9.63881Z" fill="#BDBDBD"/>
<path d="M1.95123 10.2435L6.00498 14.9923C6.00498 14.9923 6.18623 14.7235 6.22748 14.3048C6.26373 13.9398 6.13623 13.4548 6.13623 13.4548L2.11998 8.93604L1.95123 10.2435Z" fill="#206022"/>
</g>
<defs>
<linearGradient id="paint0_linear_30_690" x1="10.1783" y1="1.39445" x2="10.1783" y2="1.39445" gradientUnits="userSpaceOnUse">
<stop stop-color="#43A047"/>
<stop offset="0.999" stop-color="#66BB6A"/>
</linearGradient>
<clipPath id="clip0_30_690">
<rect width="16" height="16" fill="white"/>
</clipPath>
</defs>
</svg>
