<svg width="25" height="25" viewBox="0 0 25 25" fill="none" xmlns="http://www.w3.org/2000/svg">
<path d="M21.4427 17.3354C20.7864 13.3866 18.7432 10.4461 16.967 8.719C16.4501 8.21642 16.1917 7.96513 15.6208 7.73257C15.0499 7.5 14.5592 7.5 13.5778 7.5H11.4222C10.4408 7.5 9.9501 7.5 9.37922 7.73257C8.80834 7.96513 8.54991 8.21642 8.03304 8.719C6.25682 10.4461 4.21361 13.3866 3.55727 17.3354C3.06893 20.2734 5.77927 22.5 8.80832 22.5H16.1917C19.2207 22.5 21.9311 20.2734 21.4427 17.3354Z" stroke="white" stroke-width="1.5" stroke-linecap="round"/>
<path d="M7.75662 4.94287C7.55031 4.64258 7.25128 4.23499 7.86899 4.14205C8.50392 4.04651 9.16321 4.48114 9.80855 4.47221C10.3924 4.46413 10.6898 4.20519 11.0089 3.83548C11.3449 3.44617 11.8652 2.5 12.5 2.5C13.1348 2.5 13.6551 3.44617 13.9911 3.83548C14.3102 4.20519 14.6076 4.46413 15.1914 4.47221C15.8368 4.48114 16.4961 4.04651 17.131 4.14205C17.7487 4.23499 17.4497 4.64258 17.2434 4.94287L16.3105 6.30064C15.9115 6.88146 15.712 7.17187 15.2944 7.33594C14.8769 7.5 14.3373 7.5 13.2582 7.5H11.7418C10.6627 7.5 10.1231 7.5 9.70556 7.33594C9.28802 7.17187 9.0885 6.88146 8.68945 6.30064L7.75662 4.94287Z" stroke="white" stroke-width="1.5"/>
</svg>
