<svg width="24" height="24" viewBox="0 0 24 24" fill="none" xmlns="http://www.w3.org/2000/svg">
<g clip-path="url(#clip0_85_656)">
<path fill-rule="evenodd" clip-rule="evenodd" d="M20.5286 20.559C18.7783 22.3076 16.3577 23.3019 13.4177 23.5401L13.3491 23.4544C11.5149 21.4556 10.1177 18.6561 9.45428 15.4076C9.97314 15.4396 10.5046 15.4544 11.0486 15.4521C16.0269 15.4316 20.364 13.935 23.556 11.4424C23.5617 11.6344 23.5646 11.8287 23.5646 12.0253C23.5646 15.6099 22.5531 18.5327 20.5286 20.559ZM23.268 8.86586L23.256 8.87786C20.4446 11.547 16.1863 13.2887 11.04 13.3093C10.4027 13.312 9.76551 13.2874 9.13028 13.2356C9.06298 12.5376 9.02865 11.8368 9.02742 11.1356C9.02742 6.98015 10.1949 3.23101 12.0651 0.452148C15.6171 0.465863 18.5143 1.47729 20.5286 3.48986C21.9206 4.88186 22.8343 6.69901 23.268 8.86586ZM6.95314 12.9321C6.90743 12.3413 6.88457 11.7424 6.88457 11.1356C6.88457 7.22701 7.82743 3.59272 9.44571 0.64072C7.00971 1.01786 4.98 1.96758 3.45942 3.48986C1.78114 5.16643 0.798853 7.46015 0.510853 10.2339C2.44798 11.5702 4.64186 12.4891 6.95314 12.9321ZM0.435425 12.7264C0.560568 15.9939 1.56685 18.6664 3.45942 20.559C5.22685 22.3264 7.67828 23.3224 10.6594 23.547C8.98285 21.2516 7.77943 18.363 7.22743 15.159C4.83119 14.7811 2.52725 13.9566 0.435425 12.7281V12.7264Z" fill="white"/>
</g>
<defs>
<clipPath id="clip0_85_656">
<rect width="24" height="24" fill="white"/>
</clipPath>
</defs>
</svg>
