<svg width="118" height="126" viewBox="0 0 118 126" fill="none" xmlns="http://www.w3.org/2000/svg">
<g clip-path="url(#clip0_25_266)">
<mask id="mask0_25_266" style="mask-type:luminance" maskUnits="userSpaceOnUse" x="0" y="0" width="172" height="172">
<path d="M0 0H172V172H0V0Z" fill="white"/>
</mask>
<g mask="url(#mask0_25_266)">
<path d="M39.9298 104.847C40.3254 105.652 40.7554 106.441 41.2198 107.212C44.3416 112.849 52.3912 117.059 58.609 115.489C62.7069 114.457 67.6734 111.353 67.8798 107.543C68.1545 104.644 68.0301 101.722 67.51 98.857C78.8878 93.3531 87.8275 83.0459 83.2781 63.3476C82.0182 55.4786 76.2777 50.2498 70.5716 45.2704C69.4376 44.278 68.2025 43.4074 66.8865 42.6732C69.0099 41.1927 70.6441 39.1132 71.5808 36.7C72.5174 34.2868 72.714 31.6493 72.1454 29.1239C69.8492 19.2339 56.1193 14.0739 47.3043 13.8374C46.8415 12.8682 46.3335 11.9212 45.7821 10.9994C42.7635 5.29764 34.6236 1.30724 28.4746 2.67464C24.3767 3.58194 19.4102 6.81124 19.2038 10.621C18.9071 13.631 19.049 16.6711 19.6166 19.6424C8.3592 25.5205 -0.412805 36.5285 3.7668 54.9497C4.56341 59.9445 7.09545 64.4985 10.9177 67.811C12.8527 69.488 14.5383 71.3069 16.4733 72.9839C17.5913 73.9557 18.791 74.7986 20.0724 75.5124C17.9617 76.9881 16.3411 79.0619 15.4192 81.4667C14.4973 83.8715 14.3163 86.4972 14.8995 89.0057C17.2344 99.2569 30.5988 104.851 39.9298 104.847Z" fill="#00034A" stroke="#00034A" stroke-width="4.3" stroke-linejoin="round"/>
<path d="M140.111 58.0717C138.073 55.0359 141.337 49.2696 147.408 45.1889C151.222 42.6261 162.402 38.6744 166.01 44.0408C168.048 47.0766 164.785 52.8472 158.713 56.9279C154.899 59.4907 143.719 63.4381 140.111 58.0717ZM143.035 22.9536C146.105 24.9402 145.37 31.5278 141.388 37.6682C137.884 43.0733 130.896 48.4397 124.713 44.4321C121.647 42.4412 122.382 35.8536 126.36 29.7175C129.649 24.6435 136.946 19.0062 143.035 22.9536ZM109.598 12.2896C105.948 12.0402 102.589 17.7592 102.099 25.0563C101.609 32.3534 104.163 38.468 107.814 38.7131C115.623 39.242 118.637 35.4408 119.23 26.6903C119.729 19.2857 117.403 12.8185 109.598 12.2896Z" fill="#00034A" stroke="#00034A" stroke-width="4.3" stroke-miterlimit="10"/>
<path fill-rule="evenodd" clip-rule="evenodd" d="M134.788 92.85C136.938 93.9508 138.959 95.2881 140.808 96.849C145.017 99.7816 149.171 106.202 150.457 111.013C152.543 118.831 152.5 129.938 151.072 138.817C148.922 152.186 143.126 164.768 135.179 167.042C130.918 169.897 110.639 170.186 94.3334 167.537C78.0278 164.888 58.867 158.352 55.7624 154.211C51.0754 150.999 46.5088 144.175 45.1457 138.817C43.5719 132.621 43.5676 124.661 44.7587 116.844C46.7797 103.471 53.363 86.3011 61.3094 84.0221C65.3529 82.3874 69.6961 81.6254 74.0546 81.7861C74.2223 80.5047 74.3857 79.305 74.5921 77.9806C75.1337 74.3663 76.4103 70.9013 78.3431 67.7995C80.2759 64.6977 82.824 62.0249 85.8299 59.9461C88.8358 57.8674 92.2359 56.4267 95.8203 55.7131C99.4046 54.9995 103.097 55.028 106.67 55.7969C110.291 56.2011 113.795 57.3449 116.964 59.1509C122.099 62.0792 126.312 67.1575 129.851 71.8531C132.084 74.8198 133.676 78.2182 134.526 81.8328C135.376 85.4474 135.465 89.1992 134.788 92.85ZM114.234 76.9744C115.24 79.434 115.575 82.5128 115.025 86.2194C110.791 85.1219 106.511 84.2094 102.198 83.4846C99.933 83.1105 97.6573 82.8036 95.374 82.5644C98.0271 76.4455 103.338 74.274 109.027 75.2114H109.19C111.039 75.5038 112.746 76.0886 114.234 76.9744Z" fill="#00034A" stroke="#00034A" stroke-width="4.3" stroke-miterlimit="10"/>
<path d="M140.808 96.8533C137.465 94.0351 133.577 91.936 129.387 90.6871C129.636 89.4444 129.882 88.2447 130.088 86.9203C130.703 83.3253 130.577 79.6425 129.718 76.0978C128.859 72.5532 127.284 69.2216 125.091 66.3075C122.897 63.3934 120.132 60.9582 116.963 59.1516C113.795 57.3449 110.291 56.2048 106.666 55.8012C103.093 55.031 99.4009 55.0013 95.8166 55.7142C92.2323 56.4271 88.8322 57.8673 85.8263 59.9459C82.8205 62.0244 80.2728 64.6973 78.3405 67.7992C76.4082 70.9011 75.1325 74.3663 74.5921 77.9806C74.3857 79.305 74.2223 80.5047 74.0546 81.7861C69.6961 81.6254 65.3529 82.3874 61.3094 84.0221C53.363 86.3011 46.784 103.475 44.7544 116.84C42.7291 130.208 44.1782 143.99 51.0066 148.664C54.1069 152.805 73.2677 159.341 89.5776 161.994C105.879 164.639 126.158 164.35 130.419 161.495C138.365 159.216 144.162 146.639 146.312 133.27C148.462 119.901 147.473 101.493 140.808 96.8533ZM104.43 69.6644C111.508 70.7824 116.513 76.2004 115.025 86.2194C110.791 85.1219 106.511 84.2094 102.198 83.4846C97.8929 82.7893 93.5561 82.3057 89.2035 82.0355C90.773 72.1025 97.2316 68.5034 104.266 69.6644H104.43Z" fill="#9BFF00" stroke="#00034A" stroke-width="4.3" stroke-miterlimit="10"/>
<path d="M55.2679 109.1C58.9917 119.2 77.1592 122.137 95.3267 125.074C113.494 128.015 131.705 130.909 138.37 122.55" stroke="#00034A" stroke-width="4.3" stroke-miterlimit="10" stroke-linecap="round"/>
<path d="M81.5065 115.433C81.1324 113.984 78.2772 112.828 76.0455 112.454C73.8095 112.079 70.7436 112.454 69.961 113.529C68.7092 115.688 67.9186 118.083 67.639 120.563C67.1391 123.008 67.1391 125.528 67.639 127.972C68.0131 129.421 70.8683 130.578 73.1043 130.952C75.3403 131.326 78.4019 130.952 79.1888 129.834C80.4508 127.68 81.2408 125.282 81.5065 122.799C82.0005 120.369 82.0005 117.864 81.5065 115.433ZM123.053 122.137C122.683 120.688 119.828 119.531 117.592 119.157C115.356 118.783 112.294 119.157 111.508 120.275C110.246 122.43 109.456 124.827 109.19 127.31C108.665 129.752 108.665 132.277 109.19 134.719C109.521 136.125 112.376 137.286 114.612 137.656C116.848 138.026 119.91 137.656 120.697 136.581C121.949 134.419 122.751 132.026 123.053 129.546C123.53 127.099 123.53 124.584 123.053 122.137Z" fill="white" stroke="#00034A" stroke-width="4.3" stroke-miterlimit="10"/>
<path d="M77.7397 58.2823C76.9405 53.2767 74.4119 48.7095 70.5937 45.3753C66.7755 42.0411 61.9094 40.1508 56.8417 40.0331V39.616C60.1941 38.8382 63.1026 36.7657 64.9322 33.8509C66.7618 30.9361 67.3639 27.4158 66.607 24.0586C64.6204 15.4887 53.5307 13.6268 43.7224 13.9579C42.9231 11.1398 41.7533 8.44021 40.2437 5.92984C38.4248 2.49414 32.594 1.87494 28.4918 2.78654C24.3939 3.69384 19.4274 6.92314 19.221 10.7329C18.9243 13.7429 19.0662 16.783 19.6338 19.7543C8.385 25.6281 -0.395601 36.6361 3.784 55.0573C4.58179 60.0527 7.11374 64.6074 10.9354 67.9218C14.757 71.2363 19.624 73.0986 24.682 73.1818V73.5946C23.0191 73.9671 21.4463 74.6649 20.0543 75.6479C18.6622 76.6309 17.4784 77.8796 16.5711 79.3221C15.6638 80.7646 15.0509 82.3724 14.7677 84.0529C14.4845 85.7333 14.5366 87.4531 14.921 89.1133C17.1527 98.9174 28.6595 100.246 37.926 99.6655C38.6871 102.353 39.8008 104.929 41.237 107.32C43.1419 110.76 48.977 111.46 53.0749 110.424C57.1728 109.392 62.135 106.288 62.3457 102.482C62.6194 99.5818 62.4935 96.6577 61.9716 93.7917C73.3537 88.2877 82.2891 77.9806 77.7397 58.2823Z" fill="white" stroke="#00034A" stroke-width="4.3" stroke-linejoin="round"/>
<path d="M56.8417 39.8652C50.3201 39.9373 43.8824 41.3451 37.926 44.0018M24.682 73.1816C31.2225 73.282 37.6973 71.8646 43.5977 69.0407" stroke="#00034A" stroke-width="4.3" stroke-linecap="round" stroke-linejoin="round"/>
<path d="M115.313 25.9464C115.803 18.6493 113.249 12.5304 109.594 12.2896C105.948 12.0402 102.589 17.7592 102.099 25.0563C101.609 32.3534 104.163 38.468 107.814 38.7131C111.465 38.9582 114.823 33.2435 115.313 25.9464ZM137.471 36.92C141.453 30.7839 142.188 24.192 139.118 22.2054C136.052 20.2188 130.337 23.5814 126.36 29.7175C122.382 35.8536 121.647 42.4455 124.713 44.4321C127.779 46.4187 133.494 43.0561 137.475 36.92H137.471ZM154.8 56.1797C160.863 52.099 164.131 46.3327 162.093 43.2969C160.055 40.2611 153.48 41.1082 147.408 45.1889C141.337 49.2696 138.073 55.0359 140.111 58.0717C142.154 61.1075 148.733 60.2647 154.8 56.1797Z" fill="#9BFF00" stroke="#00034A" stroke-width="4.3" stroke-miterlimit="10"/>
</g>
</g>
<defs>
<clipPath id="clip0_25_266">
<rect width="172" height="172" fill="white"/>
</clipPath>
</defs>
</svg>
