<svg width="25" height="25" viewBox="0 0 25 25" fill="none" xmlns="http://www.w3.org/2000/svg">
<path d="M17.002 8.49988C17.8458 8.49988 18.8198 8.4165 19.301 9.24988C19.502 9.59795 19.502 10.0653 19.502 10.9999V11.9999C19.502 12.9345 19.502 13.4018 19.301 13.7499C18.8198 14.5832 17.8458 14.4999 17.002 14.4999C16.1581 14.4999 15.1841 14.5832 14.7029 13.7499C14.502 13.4018 14.502 12.9345 14.502 11.9999V10.9999C14.502 10.0653 14.502 9.59795 14.7029 9.24988C15.1841 8.4165 16.1581 8.49988 17.002 8.49988Z" stroke="white" stroke-width="1.5" stroke-linecap="round" stroke-linejoin="round"/>
<path d="M8.00195 8.49988C8.84585 8.49988 9.81984 8.4165 10.301 9.24988C10.502 9.59795 10.502 10.0653 10.502 10.9999V17.9999C10.502 18.9345 10.502 19.4018 10.301 19.7499C9.81984 20.5832 8.84585 20.4999 8.00195 20.4999C7.15806 20.4999 6.18406 20.5832 5.70292 19.7499C5.50195 19.4018 5.50195 18.9345 5.50195 17.9999V10.9999C5.50195 10.0653 5.50195 9.59795 5.70292 9.24988C6.18406 8.4165 7.15806 8.49988 8.00195 8.49988Z" stroke="white" stroke-width="1.5" stroke-linecap="round" stroke-linejoin="round"/>
<path d="M22.5 4.5H2.5" stroke="white" stroke-width="1.5" stroke-linecap="round" stroke-linejoin="round"/>
</svg>
