<svg width="25" height="25" viewBox="0 0 25 25" fill="none" xmlns="http://www.w3.org/2000/svg">
<path d="M7.51428 16.503H11.5143M7.51428 11.5054H15.5143" stroke="white" stroke-width="1.5" stroke-linecap="round"/>
<path d="M10.5143 22.5H11.5143" stroke="white" stroke-width="1.5" stroke-linecap="round"/>
<path d="M8.01083 22.5C6.83921 22.475 6.03921 22.4001 5.26421 22.1752C4.21491 21.9003 3.44905 20.9758 3.22421 19.6764C2.93921 18.452 3.03921 15.4285 3.01416 11.8303C3.01623 9.0388 2.8892 6.35793 3.3392 4.83368C3.6142 4.33392 3.8392 2.50982 7.56421 2.53481C8.18921 2.50982 14.8142 2.45984 15.8642 2.55979C19.3642 2.63476 19.7142 4.43387 19.9142 6.13304C20.041 7.38242 20.0142 9.38144 20.0142 11.5054M7.51421 2.50982C7.81421 4.13402 7.78921 5.1835 8.88921 5.43338C9.36421 5.50834 10.4495 5.50634 11.6142 5.50834C12.6538 5.51013 13.7142 5.51951 14.1892 5.40839C15.3642 5.13353 15.2392 3.68424 15.5392 2.50982" stroke="white" stroke-width="1.5" stroke-linecap="round"/>
<path d="M18.7786 14.8785C17.4045 16.2778 14.7563 18.7766 14.7563 18.9515C14.5427 19.2481 14.3565 19.851 14.2316 20.7006C14.0747 21.4882 13.8868 22.1749 14.1067 22.3748C14.3266 22.5747 15.1545 22.4062 16.0304 22.2249C16.7299 22.1499 17.3795 21.9 17.7043 21.6502C18.179 21.2302 21.4018 17.977 21.7766 17.5522C22.0514 17.1774 22.0764 16.4777 21.8365 16.0529C21.7016 15.7531 20.8522 14.9534 20.5774 14.7286C20.0777 14.4287 19.3782 14.3787 18.7786 14.8785Z" stroke="white" stroke-width="1.5" stroke-linecap="round"/>
</svg>
