<svg width="24" height="24" viewBox="0 0 24 24" fill="none" xmlns="http://www.w3.org/2000/svg">
<path fill-rule="evenodd" clip-rule="evenodd" d="M20.237 9.7365C20.2317 9.3945 20.225 9.06567 20.217 8.75C19.865 8.75 19.4205 8.749 18.937 8.744C17.8015 8.7325 16.4155 8.7 15.5035 8.6125C13.837 8.4525 12.541 7.1245 12.3805 5.45C12.293 4.5375 12.263 3.1625 12.2535 2.0385C12.2495 1.5575 12.2495 1.116 12.2505 0.7675C11.7038 0.756167 11.1203 0.750333 10.5 0.75C7.3425 0.75 5.163 0.9115 3.791 1.0685C2.3435 1.2335 1.244 2.334 1.0845 3.784C0.9215 5.261 0.75 7.715 0.75 11.5C0.75 15.285 0.9215 17.739 1.0845 19.216C1.2445 20.666 2.3435 21.766 3.791 21.9315C5.067 22.0775 7.0415 22.2275 9.8515 22.2475V22.19C9.853 21.0765 9.9185 20.2495 9.99 19.6775C10.105 18.76 10.565 18.0075 11.115 17.4575L17.906 10.666C18.447 10.125 19.3045 9.674 20.237 9.7365ZM9.712 5.0085C9.84358 4.81954 9.89537 4.58633 9.85615 4.35944C9.81693 4.13255 9.68985 3.93026 9.50248 3.79644C9.3151 3.66261 9.08252 3.60804 8.85518 3.64456C8.62783 3.68107 8.42405 3.80573 8.288 3.9915L6.388 6.651L5.1185 5.381C5.03777 5.29745 4.9412 5.2308 4.83444 5.18497C4.72768 5.13913 4.61285 5.11502 4.49667 5.11403C4.38049 5.11305 4.26528 5.13521 4.15775 5.17923C4.05022 5.22324 3.95254 5.28823 3.8704 5.37041C3.78826 5.45258 3.72331 5.55029 3.67934 5.65783C3.63536 5.76537 3.61325 5.8806 3.61428 5.99678C3.61531 6.11296 3.63947 6.22777 3.68535 6.33452C3.73123 6.44126 3.79791 6.5378 3.8815 6.6185L5.8815 8.6185C5.97135 8.70832 6.07968 8.7775 6.19896 8.82123C6.31824 8.86496 6.44562 8.88219 6.57223 8.87173C6.69885 8.86126 6.82166 8.82334 6.93215 8.76062C7.04263 8.69789 7.13812 8.61186 7.212 8.5085L9.712 5.0085ZM9.5085 9.288C9.69732 9.42287 9.82483 9.62722 9.863 9.85611C9.90116 10.085 9.84685 10.3197 9.712 10.5085L7.212 14.0085C7.13812 14.1119 7.04263 14.1979 6.93215 14.2606C6.82166 14.3233 6.69885 14.3613 6.57223 14.3717C6.44562 14.3822 6.31824 14.365 6.19896 14.3212C6.07968 14.2775 5.97135 14.2083 5.8815 14.1185L3.8815 12.1185C3.7967 12.0381 3.72886 11.9415 3.682 11.8345C3.63514 11.7274 3.61019 11.612 3.60864 11.4952C3.60709 11.3783 3.62896 11.2624 3.67296 11.1541C3.71696 11.0458 3.78221 10.9475 3.86484 10.8648C3.94748 10.7822 4.04583 10.717 4.15409 10.673C4.26235 10.629 4.37833 10.6071 4.49519 10.6086C4.61204 10.6102 4.7274 10.6351 4.83445 10.682C4.94151 10.7289 5.03809 10.7967 5.1185 10.8815L6.3885 12.151L8.288 9.491C8.42295 9.30226 8.62734 9.17484 8.85622 9.13678C9.08509 9.09871 9.31972 9.1531 9.5085 9.288ZM13.7535 2.026C13.763 3.1535 13.7935 4.4675 13.8735 5.307C13.9675 6.286 14.7155 7.03 15.6465 7.1195C16.4865 7.2 17.813 7.2325 18.952 7.2445C19.3535 7.2485 19.727 7.2495 20.0425 7.2495C19.746 6.553 19.026 5.278 17.3265 3.6115C15.725 2.0415 14.4795 1.326 13.75 1.0065C13.75 1.3055 13.7505 1.6535 13.7535 2.026ZM22.7735 15.533C23.2295 15.077 23.4285 14.4205 23.107 13.861C22.8865 13.477 22.5455 13 22.0225 12.4775C21.5 11.9545 21.0225 11.6135 20.639 11.3925C20.0795 11.071 19.423 11.2705 18.967 11.727L18.026 12.6675C18.555 12.9625 19.2455 13.4425 20.017 14.2135C20.833 15.0295 21.3225 15.7545 21.612 16.2935C21.6627 16.3885 21.7075 16.4773 21.7465 16.56L22.7735 15.533ZM17.228 13.9405C17.1237 13.8841 17.0169 13.8324 16.908 13.7855L12.176 18.518C11.807 18.8865 11.543 19.346 11.4785 19.863C11.415 20.371 11.3525 21.137 11.351 22.1925C11.3508 22.3182 11.3754 22.4426 11.4234 22.5588C11.4714 22.6749 11.5419 22.7804 11.6307 22.8693C11.7196 22.9581 11.8251 23.0286 11.9412 23.0766C12.0574 23.1246 12.1818 23.1492 12.3075 23.149C13.363 23.147 14.129 23.085 14.6365 23.0215C15.154 22.9565 15.6135 22.693 15.982 22.324L20.587 17.719C20.5643 17.6698 20.5471 17.6184 20.5355 17.5655C20.5254 17.5311 20.514 17.4971 20.5015 17.4635C20.4424 17.3051 20.3719 17.1512 20.2905 17.003C20.0705 16.593 19.6685 15.9865 18.9565 15.2745C18.244 14.562 17.6375 14.1605 17.228 13.9405Z" fill="white"/>
</svg>
