<svg width="19" height="17" viewBox="0 0 19 17" fill="none" xmlns="http://www.w3.org/2000/svg">
<path fill-rule="evenodd" clip-rule="evenodd" d="M18.234 13.6C18.2675 13.5988 18.3008 13.6055 18.3312 13.6196C18.3617 13.6337 18.3884 13.6547 18.4092 13.6809C18.43 13.7072 18.4444 13.738 18.4511 13.7708C18.4579 13.8037 18.4568 13.8377 18.448 13.87C18.254 14.562 17.947 15.152 17.454 15.648C16.733 16.375 15.818 16.698 14.688 16.851C13.59 17 12.188 17 10.416 17H8.379C6.608 17 5.205 17 4.107 16.851C2.977 16.698 2.062 16.375 1.341 15.648C0.62 14.923 0.3 14 0.148 12.862C0 11.754 0 10.34 0 8.555V8.445C0 6.66 0 5.245 0.148 4.139C0.3 3 0.62 2.08 1.34 1.351C2.061 0.625 2.976 0.301 4.106 0.149C5.205 1.63913e-07 6.608 0 8.379 0H10.416C12.187 0 13.59 1.63913e-07 14.688 0.149C15.818 0.302 16.733 0.625 17.454 1.351C17.947 1.848 18.254 2.438 18.448 3.131C18.4566 3.16328 18.4575 3.19714 18.4507 3.22984C18.4439 3.26255 18.4295 3.2932 18.4087 3.31935C18.3879 3.3455 18.3613 3.36641 18.3309 3.38042C18.3006 3.39442 18.2674 3.40113 18.234 3.4H15.801C13.067 3.4 10.658 5.577 10.658 8.5C10.658 11.423 13.068 13.6 15.802 13.6H18.234ZM3.614 3.886C3.51879 3.88639 3.42459 3.90554 3.33678 3.94233C3.24897 3.97913 3.16927 4.03287 3.10222 4.10047C3.03518 4.16807 2.98211 4.24821 2.94604 4.33633C2.90997 4.42444 2.89161 4.51879 2.892 4.614C2.892 5.017 3.215 5.343 3.614 5.343H7.47C7.87 5.343 8.193 5.017 8.193 4.614C8.19353 4.42163 8.11769 4.2369 7.98213 4.10041C7.84657 3.96391 7.66237 3.88679 7.47 3.886H3.614Z" fill="white"/>
</svg>
